<svg xmlns="http://www.w3.org/2000/svg" width="20" height="19" viewBox="0 0 20 19">
    <path fill="#FFF" d="M17 0c1.657 0 3 1.343 3 3v13c0 1.657-1.343 3-3 3H3c-1.657 0-3-1.343-3-3V3c0-1.657 1.343-3 3-3h14zm0 2H3c-.513 0-.936.386-.993.883L2 3v13c0 .513.386.936.883.993L3 17h14c.513 0 .936-.386.993-.883L18 16V3c0-.513-.386-.936-.883-.993L17 2zm-2.568 3.257c.363-.347.946-.342 1.303.01l.082.092c.272.353.24.855-.093 1.173l-6.606 6.302c-.234.224-.611.22-.842-.006l-.234-.231L5.27 9.91c-.36-.35-.36-.916 0-1.265.36-.35.944-.35 1.304 0l1.722 1.67c.23.222.6.224.83.004z"/>
</svg>
