<svg xmlns="http://www.w3.org/2000/svg" width="22" height="22" viewBox="0 0 22 22">
    <path fill="#FFF" fill-rule="evenodd" stroke="#FFF" stroke-width=".4" d="M10.262 1.011c.393-.025.727.284.727.678 0 .342-.253.633-.592.674-3.92.48-6.633 2.539-7.73 6.5-.847 3.064.02 5.799 2.184 8.2.205-2.524 1.418-4.306 3.64-5.429-1.202-1.036-1.749-2.34-1.487-3.924.167-1.015.68-1.853 1.495-2.484 1.678-1.298 4.016-1.107 5.446.396 1.42 1.492 1.675 4.273-.43 6.016 2.205 1.11 3.424 2.892 3.63 5.418 2.004-2.187 2.849-4.695 2.331-7.573-.48-2.673-1.944-4.654-4.229-6.007-.301-.178-.416-.558-.265-.874h0l.005-.012c.168-.352.597-.49.937-.302 3.492 1.926 5.985 6.314 4.76 11.173-1.273 5.048-6.143 8.19-11.2 7.424-5.201-.788-9.021-5.552-8.422-10.992.565-5.124 4.753-8.594 9.2-8.882zm5.42 15.417c-.47-2.494-2.643-4.163-5.159-3.9-1.962.205-3.282 1.308-4.007 3.134-.296.746-.277 1.532-.274 2.317 0 .153.045.243.176.324 1.321.823 2.76 1.266 4.312 1.314 1.69.052 3.26-.372 4.72-1.229.233-.137.344-.286.304-.555-.019-.125-.003-.256-.003-.384h0l.021-.002c-.028-.34-.027-.686-.09-1.02zM10.997 5.729c-1.471.002-2.695 1.232-2.688 2.7.006 1.475 1.24 2.7 2.702 2.687 1.476-.013 2.693-1.246 2.678-2.711-.016-1.469-1.232-2.678-2.692-2.676zm1.566-4.085c.068-.437.493-.724.923-.624h0l.018.004c.43.1.684.547.552.97l-.004.014c-.12.38-.512.605-.9.513h0l-.015-.003c-.387-.092-.638-.466-.577-.86l.003-.014z"/>
</svg>
