<svg xmlns="http://www.w3.org/2000/svg" width="20" height="20" viewBox="0 0 20 20">
    <path fill="#FFF" d="M7.43.033c.607-.16 1.211.278 1.265.919l.005.116-.008.166c-.05.416-.34.766-.744.884-3.313.968-5.313 3.248-5.777 6.77-.44 3.33.898 6.085 3.766 7.82l.27.157.28.151c2.616 1.354 5.292 1.135 7.876-.543l.158-.107 1.488 1.511-.275.217c-3.116 2.34-7.541 2.593-11.038.38C.77 15.988-.971 11.006.542 6.554 1.696 3.157 4.35.844 7.43.034zm12.531 11.254l-.03.24-.066.394c-.268 1.432-.817 2.733-1.652 3.914l-.12.162-1.377-1.424.13-.192.203-.329c.452-.777.765-1.624.937-2.532l.038-.233h1.937zm-3.667-4.082c.067.874-.771 1.59-1.635 1.304l-.037.008c-.008.002-.014.005-.017.007l-.964.81c-.62.522-1.196 1.014-1.752 1.494-.025.022-.058.105-.055.145.056.742-.469 1.321-1.115 1.376-.705.06-1.312-.427-1.35-1.102v-.129c.012-.216-.042-.314-.228-.483l-.525-.472c-.12-.105-.226-.197-.335-.289-.015-.013-.053-.026-.078-.025-.174.001-.353.015-.534.041-.028.004-.063.021-.071.03l-.829.974c-.182.217-.35.42-.517.625l-.003.041v.04l.004.041c.128.694-.189 1.301-.811 1.524-.596.213-1.244-.062-1.514-.645-.213-.459-.174-.92.12-1.32.298-.401.71-.575 1.2-.498l.034-.018c.484-.56.935-1.095 1.362-1.618.005-.006.015-.062.01-.084-.137-.541.012-1.01.43-1.353.4-.327.874-.377 1.326-.135.422.225.653.592.679 1.072v.165l-.211-.009.188.098c-.01.02-.014.028.009.052l.82.723c.089.08.166.15.25.228.037.034.057.045.098.042l.05-.007c.15-.029.31-.036.461-.022l.15.023c.105.021.137.015.196-.036l1.271-1.087 1.39-1.176c.053-.045.065-.058.062-.102l-.006-.04c-.105-.67.466-1.356 1.145-1.397.69-.041 1.278.493 1.332 1.184zM11.32.04l.218.029.383.063c1.771.327 3.336 1.09 4.701 2.299l.271.248.275.268c1.518 1.54 2.431 3.399 2.756 5.59l.02.154h-2.088l-.046-.213-.08-.324c-.844-3.2-2.92-5.205-6.191-5.968l-.219-.05V.04z"/>
</svg>
