<svg xmlns="http://www.w3.org/2000/svg" width="22" height="22" viewBox="0 0 22 22">
    <path fill="#FFF" fill-rule="evenodd" stroke="#FFF" stroke-width=".5" d="M8.886 1c.204 0 .374.085.518.261.21.255.424.511.632.76.23.273.466.556.697.838.062.076.115.102.207.102h0l.799-.001c2.651-.004 5.218-.003 7.413-.001.932 0 1.649.704 1.825 1.792.023.14.022.278.022.41h0v6.82h0L21 18.764c0 1.316-.768 2.235-1.867 2.236H6.285h0-3.322c-1.03 0-1.624-.521-1.922-1.688H1.04h0L1 19.257V2.777l.012-.035c.025-.07.048-.143.071-.219.054-.173.11-.351.196-.515.343-.654.865-1.001 1.51-1.004C4.098 1 5.43 1 6.715 1zM5.452 2.354H2.947l-.117.004c-.488.039-.698.333-.698.962h0v15.384c0 .644.253.944.796.944H19.08c.53 0 .787-.305.787-.93h0v-3.9c0-3.131-.002-6.37.006-9.554 0-.287-.072-.527-.211-.693-.142-.168-.343-.256-.585-.254-1.837.013-3.705.012-5.511.011l-2.855.001c-.244 0-.437-.095-.605-.3-.483-.592-.914-1.106-1.317-1.572-.046-.053-.131-.096-.19-.097-1.568-.007-3.163-.007-4.705-.007zm4.49 4.653c1.005-.058 2 .243 2.803.848.86.649 1.46 1.706 1.604 2.83.098.767.028 1.912-.832 3.063.06.05.12.103.177.16.772.771 1.464 1.463 2.113 2.117.203.204.248.445.125.676-.099.189-.283.3-.478.3-.047 0-.095-.007-.143-.02-.148-.043-.269-.148-.328-.207-.768-.762-1.54-1.538-2.195-2.196-.02-.02-.038-.043-.053-.065-1.069.783-2.182 1.04-3.4.788-1.032-.214-1.878-.758-2.513-1.618-.604-.815-.89-1.82-.808-2.828.083-1.007.53-1.956 1.257-2.671.712-.7 1.66-1.118 2.67-1.177zm.04.993h-.017C8.323 8.01 6.993 9.357 7 11.007c.004.809.32 1.564.89 2.126.57.563 1.33.871 2.144.868.79-.004 1.534-.319 2.095-.887.567-.574.876-1.333.871-2.138-.005-.802-.322-1.552-.894-2.112C11.538 8.306 10.784 8 9.981 8h0z"/>
</svg>
