<svg xmlns="http://www.w3.org/2000/svg" width="20" height="20" viewBox="0 0 20 20">
    <path fill="#FFF" fill-rule="evenodd" d="M16.512 12.193c1.635-.193 3.056.764 3.419 2.3.31 1.314-.449 2.726-1.779 3.29-.135.058-.184.121-.182.265.008.638.004 1.277.004 1.945l-.991-.971-.984.978-.065-.032v-.2c0-.575-.004-1.15.002-1.724.002-.13-.034-.196-.166-.257-1.115-.51-1.787-1.355-1.852-2.557-.09-1.644 1.12-2.862 2.594-3.037zM19.18 0c.204.14.443.25.602.428.124.14.208.365.208.552.013 3.203.01 6.405.01 9.608 0 .036-.004.073-.007.13-.052-.026-.091-.041-.127-.063-.533-.322-1.102-.57-1.703-.742-.132-.037-.166-.095-.166-.224.004-2.51.003-5.02.002-7.529 0-.062-.005-.124-.008-.197H2.016v11.69h10.03l-.066 1.964c-.062.003-.125.008-.188.008-3.554 0-7.108-.001-10.663.004-.565 0-.929-.256-1.129-.759V.8C.142.406.416.14.82 0zm-6.252 10.429c.6 0 .982.337.985.865.003.525-.378.87-.978.873-1.119.003-2.237 0-3.356 0h-.447c-1.194 0-2.387.002-3.58 0-.167 0-.34.005-.5-.028-.47-.094-.752-.483-.698-.932.057-.467.416-.778.911-.778zM5.656 3.467c1.198 0 2.17.974 2.17 2.175 0 1.202-.972 2.176-2.17 2.176-1.206 0-2.178-.974-2.178-2.176 0-1.201.972-2.175 2.17-2.175zm6.954 1.74l2.131.006c.524.003.91.382.911.856.002.483-.365.857-.893.868-.716.015-1.434.004-2.15.004v.006h-1.974c-.775 0-1.224-.504-1.021-1.147.107-.34.448-.586.864-.588 1.421-.006 2.842-.008 4.263 0z"/>
</svg>
