<svg xmlns="http://www.w3.org/2000/svg" width="20" height="20" viewBox="0 0 20 20">
    <path fill="#FFF" fill-rule="evenodd" d="M0 7.996l6.014.006h.283v11.982c-.077.005-.155.014-.233.014-1.282.001-2.563.004-3.845 0-1.135-.003-1.884-.557-2.179-1.6-.006-.02-.026-.038-.04-.056V7.996zm20 .064v9.907C20 19.13 19.37 20 18.527 20l-9.877-.001h-.191V8.06H20zM11.972 0l5.742.004c.33 0 .668-.01.985.075.74.2 1.234.992 1.235 1.897V5.95H.137c-.045 0-.09.004-.136.006V1.644c.012-.027.03-.051.036-.08C.243.597.86.008 1.694.005 3.206-.003 4.718 0 6.23 0h5.742z"/>
</svg>
