<svg xmlns="http://www.w3.org/2000/svg" width="22" height="22" viewBox="0 0 22 22">
    <path fill="#FFF" fill-rule="evenodd" stroke="#FFF" stroke-width=".4" d="M15.668 17.654c-.014 1.098.865 1.993 1.977 2.012 1.072.018 1.99-.88 2.011-1.968.021-1.087-.861-2.004-1.948-2.022-1.137-.02-2.026.842-2.04 1.978M4.342 15.676c-1.122.003-2.008.885-2.008 1.999 0 1.097.92 2.002 2.025 1.99 1.08-.01 1.965-.908 1.962-1.988-.004-1.12-.878-2.005-1.979-2.001m13.325-9.352c1.08.003 1.976-.881 1.989-1.962.013-1.104-.893-2.027-1.989-2.028-1.113 0-1.995.886-1.999 2.01-.003 1.1.88 1.976 1.999 1.98M6.32 4.338c-.003-1.122-.893-2.011-2.003-2.003-1.087.007-1.98.905-1.983 1.992-.003 1.111.888 1.996 2.01 1.996 1.095 0 1.98-.889 1.976-1.985m4.681 4.668c-1.138.006-2.003.89-2 2.045.002 1.078.917 1.947 2.045 1.943 1.054-.004 1.948-.92 1.941-1.988-.006-1.116-.89-2.006-1.986-2M3.928 1h.82c.302.09.616.153.905.275 1.354.576 2.157 1.977 1.99 3.425-.057.5-.228.955-.485 1.393.673.672 1.338 1.34 2.01 2 .035.033.145.03.196.001.41-.225.843-.37 1.309-.414.693-.067 1.34.079 1.951.412.052.029.161.034.195 0 .673-.66 1.338-1.327 2.008-1.996l-.078-.145c-.342-.635-.487-1.304-.401-2.029.16-1.364 1.215-2.548 2.557-2.841.113-.025.224-.054.336-.081h.82c.105.026.21.054.317.077 1.643.354 2.793 1.944 2.601 3.596-.2 1.73-1.648 3.027-3.352 3-.617-.01-1.189-.185-1.719-.507-.045.042-.084.075-.12.111-.612.612-1.22 1.227-1.838 1.834-.103.101-.107.17-.04.296.534.995.562 2.008.083 3.032-.153.328-.159.327.097.584.6.604 1.202 1.207 1.8 1.807 1.803-1.053 3.661-.3 4.512.937.908 1.319.75 3.121-.386 4.259-1.137 1.137-2.938 1.294-4.257.386-1.236-.85-1.99-2.711-.935-4.515-.664-.663-1.33-1.33-2.003-1.99-.035-.034-.144-.031-.196-.004-1.087.582-2.173.584-3.256-.004-.096-.052-.155-.053-.234.03-.223.236-.458.462-.688.693l-1.273 1.273c.002.025 0 .032.003.037l.082.156c.374.701.497 1.44.343 2.225-.287 1.459-1.567 2.604-3.008 2.682-1.6.085-2.983-.848-3.44-2.326-.061-.197-.103-.4-.154-.6v-.82c.04-.162.076-.325.12-.486.428-1.557 1.975-2.6 3.56-2.414.505.06.967.23 1.412.487.67-.672 1.338-1.338 1.997-2.01.034-.035.028-.144 0-.196-.219-.412-.37-.843-.412-1.31-.065-.7.08-1.355.423-1.969.025-.045.022-.146-.01-.179-.66-.673-1.326-1.34-1.993-2.01-.07.037-.128.066-.183.097-.456.257-.949.393-1.468.412-1.548.057-2.93-.973-3.333-2.473-.04-.149-.076-.299-.113-.448v-.82c.012-.03.03-.058.035-.089.259-1.42 1.087-2.326 2.463-2.738.141-.042.287-.069.43-.103"/>
</svg>
