<svg xmlns="http://www.w3.org/2000/svg" width="22" height="22" viewBox="0 0 22 22">
    <path fill="#FEFEFE" fill-rule="evenodd" stroke="#FFF" stroke-width=".5" d="M17.448 1c1.048-.005 1.775.78 1.986 1.62.063.249.098.517.098.777.006 3.795.005 7.589.001 11.383 0 .174.04.273.172.368.957.684 1.468 2.038 1.242 3.257-.256 1.384-1.154 2.388-2.304 2.568-.15.023-.304.021-.456.021-3.648 0-7.296-.015-10.944.006-1.472.008-2.574-1.065-2.934-2.358-.095-.343-.163-.712-.166-1.07-.018-1.688-.008-3.375-.008-5.062 0-.046.007-.091.014-.164.301.086.597.161.885.262.04.014.068.153.068.234.004 1.516.03 3.033-.004 4.548-.032 1.423.957 2.534 2.109 2.48.323-.014.651-.034.972.006.504.064.832-.24 1.104-.662.753-1.167.434-2.752-.674-3.432-.127-.078-.261-.206-.322-.35-.151-.364.085-.743.439-.744l9.554-.027h.297V8.936h0V3.489c0-.877-.41-1.356-1.153-1.356h0H5.11v5.784c-.32-.093-.612-.171-.9-.27-.038-.014-.072-.133-.073-.203l-.004-.545V5.775H2.726h0-1.192c-.32 0-.526-.208-.528-.575C1 4.494.987 3.784 1.033 3.08c.07-1.083.913-2.036 1.836-2.056 1.423-.032 2.847-.017 4.27-.017 3.436-.002 6.872.01 10.309-.007zm-3.183 14.796l-4.02.002c-.047 0-.095.012-.15.02.752 1.354.745 2.69-.01 4.05h4.214l4.02-.003c.143 0 .29-.028.43-.072.853-.277 1.385-1.232 1.265-2.26-.113-.977-.855-1.732-1.729-1.734-2.68-.005-5.36-.002-8.04-.001zM2.277 7.316c.035.01.12.029.2.06 2.446.912 4.892 1.824 7.335 2.746.144.054.29.16.394.288.431.526.848 1.069 1.269 1.607.364.465.24.93-.285 1.076-.61.169-1.219.346-1.831.501-.135.035-.294.03-.424-.018-2.467-.913-4.93-1.835-7.395-2.756-.373-.14-.488-.397-.372-.836.193-.733.387-1.465.582-2.197.083-.31.246-.469.527-.47zm1.898 1.879l-.328 1.283c.032.025.042.037.054.042l5.164 1.928c.044.017.093.043.133.033.352-.094.703-.194 1.093-.304-.234-.3-.433-.571-.647-.822-.084-.1-.196-.185-.309-.227-1.154-.44-2.31-.868-3.467-1.3l-1.693-.633zm-1.63-.606l-.342 1.295.721.271.333-1.303-.712-.263zM14.78 7.561c.164 0 .223.05.212.247-.013.24-.005.482-.002.723.001.108-.017.176-.13.175-1.27-.006-2.54-.008-3.81-.012-.006 0-.012-.007-.033-.02h0V7.577c.072-.005.13-.011.19-.011 1.19-.001 2.382.003 3.573-.005zm-4.585.018v1.108H8.933V7.579h1.262zm-.007-2.499v1.102H8.93V5.08h1.258zm4.788.006v1.093h-3.968V5.086h3.968zM3.383 2.132l-.363.003c-.494.007-.955.406-1.018.979-.054.5-.011 1.015-.011 1.528h2.133V2.133c-.38 0-.742-.004-1.104.002z"/>
</svg>
