<svg xmlns="http://www.w3.org/2000/svg" width="22" height="22" viewBox="0 0 22 22">
    <path fill="#FFF" fill-rule="evenodd" stroke="#FFF" stroke-width=".4" d="M12.407 1c.296.113.432.34.504.64.174.719.366 1.433.55 2.15.007.025.013.05.024.074.067.143.747.358.885.277l1.972-1.147c.378-.22.647-.169.956.148.523.535 1.055 1.061 1.584 1.59.308.31.34.563.115.944-.372.633-.74 1.269-1.12 1.898-.077.13-.115.243-.023.375.004.005.008.01.01.017.077.447.379.606.796.692.61.125 1.207.308 1.809.468.37.098.53.306.531.686v2.382c0 .369-.163.584-.518.678-.747.197-1.493.394-2.242.583-.121.03-.165.103-.228.202-.265.413-.176.761.086 1.148.34.499.618 1.039.921 1.561.195.335.16.603-.115.88-.552.553-1.104 1.105-1.658 1.656-.283.282-.548.312-.896.108-.65-.382-1.302-.761-1.95-1.148-.111-.067-.2-.057-.324-.028-.472.111-.66.414-.746.875-.112.597-.3 1.181-.457 1.77-.096.358-.31.52-.677.52H9.794h0c-.355 0-.575-.168-.665-.509-.196-.747-.393-1.493-.58-2.243-.032-.131-.088-.208-.217-.236-.025-.005-.052-.012-.073-.026-.35-.246-.652-.147-.986.072-.527.344-1.084.642-1.63.958-.345.2-.611.165-.895-.119-.549-.547-1.097-1.094-1.644-1.643-.286-.286-.32-.547-.118-.894.383-.657.766-1.314 1.155-1.967.063-.106.053-.191.026-.308-.107-.47-.407-.666-.866-.752-.567-.105-1.118-.29-1.68-.425-.292-.07-.51-.213-.621-.5V9.594c.113-.296.34-.434.64-.504.588-.139 1.166-.322 1.756-.441.38-.076.646-.222.717-.625.006-.031.022-.062.039-.089.073-.113.05-.209-.017-.323-.388-.654-.768-1.313-1.15-1.97-.199-.344-.168-.605.106-.881.556-.558 1.113-1.115 1.671-1.671.268-.267.558-.3.884-.109.605.357 1.214.705 1.81 1.075.207.127.384.187.602.042.09-.06.211-.072.304-.128.068-.041.144-.111.164-.183.195-.714.387-1.428.563-2.147.073-.299.21-.527.505-.64h2.813zm-.644 1.258h-1.527c-.2.752-.406 1.495-.595 2.243-.073.29-.243.45-.52.548-.341.12-.68.256-1.006.416-.28.138-.524.13-.79-.03-.65-.393-1.309-.771-1.937-1.14L4.294 5.39c.379.65.766 1.32 1.159 1.985.137.233.143.456.03.704-.165.366-.315.74-.46 1.114-.085.223-.224.377-.457.439l-.753.197h0l-1.555.407v1.526l.095.027c.722.191 1.442.386 2.165.572.27.07.43.23.523.496.122.348.26.694.423 1.025.137.28.133.523-.028.79-.393.65-.771 1.309-1.144 1.943l1.095 1.093c.647-.378 1.31-.76 1.97-1.153.26-.155.506-.156.773-.016.23.12.463.26.711.311.57.116.81.464.916 1.009.122.634.315 1.255.478 1.88h1.53c.202-.759.405-1.504.597-2.252.07-.272.226-.432.49-.528.365-.132.724-.285 1.077-.448.247-.114.475-.11.705.025.314.186.626.373.94.558.355.21.713.419 1.054.618l1.087-1.088c-.379-.65-.76-1.316-1.153-1.974-.155-.26-.16-.5-.024-.772.153-.306.294-.624.395-.951.104-.336.297-.52.638-.602.725-.174 1.443-.372 2.17-.562v-1.53c-.765-.203-1.524-.404-2.282-.603-.247-.065-.398-.216-.489-.457-.138-.37-.291-.735-.454-1.095-.111-.245-.123-.473.022-.704.065-.105.126-.213.189-.32l.977-1.666-1.098-1.092c-.649.378-1.32.763-1.985 1.157-.235.14-.456.14-.703.028-.36-.165-.726-.316-1.096-.453-.241-.09-.397-.236-.461-.484-.074-.289-.15-.577-.226-.866l-.372-1.421zm-.29 5.148c2.011.033 3.843 1.891 3.84 3.959-.003 2.077-1.854 3.913-3.943 3.91-2.048 0-3.898-1.843-3.929-3.849-.032-2.13 1.884-4.056 4.032-4.02zm-.099 1.317C9.85 8.726 8.756 9.824 8.76 11.35c.003 1.517 1.095 2.613 2.607 2.615 1.539.003 2.635-1.09 2.637-2.628.003-1.519-1.102-2.618-2.629-2.615z"/>
</svg>
