<svg xmlns="http://www.w3.org/2000/svg" width="21" height="20" viewBox="0 0 21 20">
    <path fill="#757F8A" fill-rule="evenodd" d="M10.996 13.654c-.33 0-.6-.263-.6-.585v-2.622c0-.322.27-.585.6-.585 1.157 0 2.099-.914 2.099-2.037 0-1.124-.942-2.038-2.1-2.038-1.156 0-2.098.914-2.098 2.038 0 .322-.27.585-.6.585-.33 0-.6-.263-.6-.585 0-1.769 1.48-3.207 3.299-3.207s3.3 1.438 3.3 3.207c0 1.551-1.148 2.876-2.7 3.152v2.092c0 .322-.27.585-.6.585m-.068 1.595c-.32 0-.58-.254-.58-.566 0-.311.26-.565.58-.565.319 0 .579.254.579.565 0 .312-.26.566-.579.566m-.374 4.451C5.078 19.7.623 15.348.623 10c0-5.349 4.455-9.7 9.93-9.7 5.477 0 9.932 4.351 9.932 9.7 0 5.348-4.455 9.7-9.931 9.7"/>
</svg>
