<svg xmlns="http://www.w3.org/2000/svg" width="21" height="21" viewBox="0 0 21 21">
    <path fill="#757F8A" fill-rule="evenodd" d="M10.267 2.57c.369 0 .74.029 1.104.087-.1-.413-.556-.726-1.104-.726-.547 0-1.004.313-1.103.725.363-.058.735-.087 1.103-.087zM8.552 17.863c.244.712.93 1.206 1.715 1.206s1.47-.494 1.715-1.206h-3.43zm1.715 2.338c-1.418 0-2.638-.994-2.91-2.338H.915c-.318 0-.578-.253-.578-.566 0-.312.26-.566.578-.566h2.48V9.286c0-2.857 1.84-5.383 4.591-6.33v-.13c0-1.117 1.023-2.026 2.281-2.026 1.259 0 2.281.91 2.281 2.026v.13c2.752.947 4.592 3.473 4.592 6.33v7.447h2.48c.318 0 .578.253.578.566 0 .312-.26.566-.579.566h-6.442c-.272 1.343-1.493 2.337-2.91 2.337z"/>
</svg>
