<svg xmlns="http://www.w3.org/2000/svg" width="16" height="16" viewBox="0 0 16 16">
    <path fill="#757F8A" fill-rule="evenodd" d="M12.124 6.161c.213 0 .408.123.494.313.087.19.051.414-.091.568l-7.855 8.532c-.103.113-.25.176-.402.176-.108 0-.213-.031-.304-.092-.223-.149-.3-.435-.18-.673l3.087-6.028-1.713-.038c-.182-.004-.349-.097-.446-.246-.096-.15-.11-.338-.035-.499L8.216.56c.087-.189.279-.31.492-.31h3.416c.182 0 .348.087.449.233.1.145.12.332.052.494L10.46 6.161h1.664zm-3.923 9.282c4.216 0 7.645-3.348 7.645-7.465 0-2.019-.812-3.91-2.285-5.325-.073-.069-.148-.138-.226-.209-.222-.195-.564-.179-.764.037-.2.216-.184.549.038.745.064.057.129.116.193.179 1.266 1.216 1.964 2.838 1.964 4.573 0 3.534-2.946 6.411-6.565 6.411-.557 0-1.109-.069-1.64-.202-.288-.073-.584.098-.658.381-.074.281.1.569.389.64.62.156 1.262.235 1.91.235zm4.75-12.588c-.01-.009-.012-.028 0-.039v.039zM3.634 13.818c.158 0 .31-.067.414-.187.192-.224.163-.556-.066-.743-1.49-1.223-2.343-3.013-2.343-4.91 0-2.895 1.996-5.441 4.855-6.193.105-.027.207-.051.308-.072.291-.062.477-.344.414-.628C7.151.8 6.863.621 6.573.681c-.114.024-.231.053-.361.086-3.33.875-5.654 3.84-5.654 7.211 0 2.21.994 4.294 2.728 5.717.098.081.22.123.347.123z"/>
</svg>
