<?xml version="1.0" encoding="utf-8"?>
<!-- Generator: Adobe Illustrator 25.2.0, SVG Export Plug-In . SVG Version: 6.00 Build 0)  -->
<svg version="1.1" id="Layer_1" xmlns="http://www.w3.org/2000/svg" xmlns:xlink="http://www.w3.org/1999/xlink" x="0px" y="0px"
	 viewBox="0 0 27.8 36" style="enable-background:new 0 0 27.8 36;" xml:space="preserve">
<style type="text/css">
	.Drop_x0020_Shadow{fill:none;}
	.Round_x0020_Corners_x0020_2_x0020_pt{fill:#FFFFFF;stroke:#231F20;stroke-miterlimit:10;}
	.Live_x0020_Reflect_x0020_X{fill:none;}
	.Bevel_x0020_Soft{fill:url(#SVGID_1_);}
	.Dusk{fill:#FFFFFF;}
	.Foliage_GS{fill:#FFDD00;}
	.Pompadour_GS{fill-rule:evenodd;clip-rule:evenodd;fill:#44ADE2;}
	.st0{fill:#FFFFFF;}
</style>
<linearGradient id="SVGID_1_" gradientUnits="userSpaceOnUse" x1="-103.2272" y1="0" x2="-102.5201" y2="0.7071">
	<stop  offset="0" style="stop-color:#DEDFE3"/>
	<stop  offset="0.1783" style="stop-color:#DADBDF"/>
	<stop  offset="0.3611" style="stop-color:#CECFD3"/>
	<stop  offset="0.546" style="stop-color:#B9BCBF"/>
	<stop  offset="0.7324" style="stop-color:#9CA0A2"/>
	<stop  offset="0.9181" style="stop-color:#787D7E"/>
	<stop  offset="1" style="stop-color:#656B6C"/>
</linearGradient>
<g>
	<g>
		<g>
			<path class="st0" d="M13.3,1.7c0,0.2,0,0.4,0,0.6c0,0.3,0.3,0.5,0.6,0.5c0.3,0,0.6-0.2,0.6-0.5c0-0.4,0-0.8,0-1.2
				c0-0.3-0.3-0.5-0.6-0.5c-0.3,0-0.5,0.2-0.6,0.5c0,0,0,0,0,0.1C13.3,1.3,13.3,1.5,13.3,1.7C13.3,1.7,13.3,1.7,13.3,1.7z"/>
			<path class="st0" d="M26.6,15c0.2,0,0.4,0,0.7,0c0.3,0,0.5-0.3,0.5-0.6c0-0.3-0.2-0.6-0.5-0.6c-0.4,0-0.8,0-1.2,0
				c-0.3,0-0.5,0.3-0.5,0.6c0,0.3,0.2,0.5,0.5,0.6C26.2,15,26.4,15,26.6,15z"/>
			<path class="st0" d="M1.1,15c0.2,0,0.4,0,0.7,0c0.3,0,0.5-0.3,0.5-0.6c0-0.3-0.2-0.6-0.5-0.6c-0.4,0-0.8,0-1.2,0
				c-0.3,0-0.5,0.3-0.5,0.6c0,0.3,0.2,0.5,0.5,0.6C0.7,15,0.9,15,1.1,15z"/>
			<path class="st0" d="M26.5,11.1c0.2-0.1,0.4-0.1,0.6-0.2c0.3-0.1,0.5-0.4,0.4-0.7c-0.1-0.3-0.3-0.5-0.7-0.4
				c-0.4,0.1-0.8,0.2-1.2,0.3c-0.3,0.1-0.5,0.4-0.4,0.7c0.1,0.3,0.3,0.5,0.7,0.4C26.1,11.2,26.3,11.1,26.5,11.1z"/>
			<path class="st0" d="M1.6,11.1C1.4,11,1.1,11,0.9,10.9c-0.3-0.1-0.5-0.4-0.4-0.7c0.1-0.3,0.3-0.5,0.7-0.4C1.6,9.9,2,10,2.4,10.1
				c0.3,0.1,0.5,0.4,0.4,0.7c-0.1,0.3-0.3,0.5-0.7,0.4C1.9,11.2,1.8,11.1,1.6,11.1z"/>
			<path class="st0" d="M26.5,17.7c0.2,0.1,0.4,0.1,0.6,0.2c0.3,0.1,0.5,0.4,0.4,0.7c-0.1,0.3-0.3,0.5-0.7,0.4
				c-0.4-0.1-0.8-0.2-1.2-0.3c-0.3-0.1-0.5-0.4-0.4-0.7c0.1-0.3,0.3-0.5,0.7-0.4C26.1,17.6,26.3,17.6,26.5,17.7z"/>
			<path class="st0" d="M1.6,17.7c-0.2,0.1-0.4,0.1-0.6,0.2c-0.3,0.1-0.5,0.4-0.4,0.7c0.1,0.3,0.3,0.5,0.7,0.4
				c0.4-0.1,0.8-0.2,1.2-0.3c0.3-0.1,0.5-0.4,0.4-0.7c-0.1-0.3-0.3-0.5-0.7-0.4C1.9,17.6,1.8,17.6,1.6,17.7z"/>
			<path class="st0" d="M17.1,2.7c0,0.4,0.1,0.6,0.4,0.7c0.3,0.1,0.6,0,0.7-0.3c0.2-0.4,0.3-0.9,0.4-1.3c0.1-0.3-0.1-0.5-0.4-0.6
				c-0.3-0.1-0.5,0-0.7,0.2C17.3,1.9,17.2,2.3,17.1,2.7z"/>
			<path class="st0" d="M10,3.4c0.5,0,0.8-0.3,0.7-0.7c-0.1-0.4-0.2-0.8-0.4-1.2c-0.1-0.3-0.4-0.5-0.7-0.4C9.3,1.3,9.1,1.6,9.2,1.9
				C9.3,2.3,9.4,2.7,9.6,3C9.7,3.2,9.9,3.3,10,3.4z"/>
			<path class="st0" d="M2.5,6.7C2.6,6.7,2.7,6.9,2.8,7c0.3,0.2,0.6,0.5,0.9,0.7C4,7.9,4.3,7.9,4.5,7.6C4.7,7.3,4.7,7,4.4,6.8
				c-0.3-0.2-0.6-0.5-1-0.7C3,5.8,2.5,6.1,2.5,6.7z"/>
			<path class="st0" d="M4.6,21.6c0-0.5-0.5-0.8-0.9-0.6c-0.4,0.2-0.7,0.5-1,0.8c-0.2,0.2-0.3,0.5-0.1,0.7c0.2,0.3,0.5,0.3,0.7,0.2
				c0.4-0.2,0.7-0.5,1.1-0.8C4.6,21.9,4.6,21.7,4.6,21.6z"/>
			<path class="st0" d="M23.2,21.6c0-0.5,0.5-0.8,0.9-0.6c0.4,0.2,0.7,0.5,1,0.8c0.2,0.2,0.3,0.5,0.1,0.7c-0.2,0.3-0.5,0.3-0.7,0.2
				c-0.4-0.2-0.7-0.5-1.1-0.8C23.2,21.9,23.2,21.7,23.2,21.6z"/>
			<path class="st0" d="M6.7,5.1c0.5,0,0.8-0.5,0.6-0.9C7,3.9,6.8,3.6,6.5,3.3C6.3,3,6,3,5.7,3.2C5.5,3.3,5.4,3.6,5.6,3.9
				C5.8,4.3,6.1,4.6,6.4,5C6.4,5.1,6.6,5.1,6.7,5.1z"/>
			<path class="st0" d="M21.7,5.1c-0.5,0-0.8-0.5-0.6-0.9c0.2-0.4,0.5-0.7,0.7-1C22.1,3,22.4,3,22.6,3.2c0.3,0.2,0.4,0.5,0.2,0.7
				C22.6,4.3,22.3,4.6,22,5C21.9,5.1,21.8,5.1,21.7,5.1z"/>
			<path class="st0" d="M23.7,7.2c0,0.5,0.5,0.8,0.9,0.6c0.4-0.2,0.7-0.5,1-0.8c0.2-0.2,0.3-0.5,0.1-0.7c-0.2-0.2-0.4-0.3-0.7-0.2
				c-0.4,0.2-0.8,0.5-1.1,0.8C23.7,7,23.7,7.1,23.7,7.2z"/>
		</g>
		<path class="st0" d="M20.9,14.2c-1.1-0.5-2.2-0.7-3.3-0.6c-1.4,0.2-2.3,1-2.9,2.2c-0.1,0.1-0.1,0.2-0.2,0.3c0-0.2,0-0.5,0-0.7
			c0-0.2,0.1-0.4,0.2-0.5c0.5-0.6,1-1.2,1.4-1.9c0.5-1,0.5-2.1,0.1-3.1c-0.4-0.9-1-1.7-1.8-2.4c-0.3-0.2-0.5-0.3-0.8,0
			c-1,0.8-1.8,1.8-2.1,3.1c-0.2,0.9-0.1,1.9,0.4,2.7c0.4,0.6,0.8,1.1,1.2,1.7c0.1,0.1,0.2,0.3,0.2,0.5c0,0.3,0,0.6,0,0.8
			c-0.1-0.1-0.1-0.3-0.2-0.4c-0.7-1.1-1.6-2-2.9-2.2c-1.2-0.1-2.3,0.1-3.3,0.6c-0.4,0.2-0.5,0.4-0.3,0.8c0.2,0.5,0.4,1,0.6,1.5
			c0.9,1.7,2.3,2.5,4.1,2.3c0.5-0.1,1.1-0.2,1.6-0.4c0.2-0.1,0.4-0.1,0.5-0.2c0,1.4,0,2.7,0,4.1c0,0.2,0,0.3,0,0.5
			c0,0.3,0.3,0.6,0.6,0.6c0.3,0,0.6-0.2,0.6-0.6c0-0.1,0-0.2,0-0.3c0-1.2,0-2.4,0-3.5c0-0.2,0-0.5,0-0.7c0.1,0.1,0.3,0.1,0.4,0.2
			c0.5,0.2,1.1,0.3,1.6,0.4c1.8,0.2,3.3-0.6,4.1-2.3c0.2-0.5,0.4-1,0.6-1.5C21.3,14.6,21.2,14.3,20.9,14.2z M9.6,16.6
			c0.6,0.3,1.3,0.6,1.9,0.9c-1.9,0.6-3.2-0.4-3.9-2.4c1.4-1,3.8-0.3,4.4,1.4c-0.3-0.1-0.5-0.2-0.7-0.3c-0.4-0.2-0.8-0.4-1.3-0.6
			c-0.3-0.1-0.7,0-0.8,0.3C9.2,16.1,9.3,16.5,9.6,16.6z M13.2,11.1c0,0.3,0,0.6,0,0.8c0,0.4,0,0.9,0,1.4c-1.3-1.4-0.9-3.6,0.6-4.6
			c1.5,1.4,1.8,3,0.6,4.6c0-0.8,0-1.5,0-2.2c0-0.4-0.2-0.6-0.6-0.6C13.5,10.5,13.3,10.7,13.2,11.1z M16.1,17.5
			c0.6-0.3,1.3-0.6,1.9-0.9c0.3-0.2,0.4-0.5,0.3-0.8c-0.1-0.3-0.5-0.4-0.8-0.3c-0.4,0.2-0.9,0.4-1.3,0.6c-0.2,0.1-0.4,0.2-0.7,0.3
			c0.6-1.6,3-2.4,4.4-1.4C19.2,17.1,18,18,16.1,17.5z"/>
		<path class="st0" d="M22.9,8.6c-1.7-2.6-4.3-4.3-7.3-4.8C9.7,3,4.5,6.7,3.4,12.5c-0.8,4.4,1.3,9.1,5.3,11.2C9,23.9,9,24,9,24.2
			c0,0.1,0,0.2,0,0.3l-0.3,0c-0.4,0-0.8,0-1.2,0c-0.4,0-0.8,0.3-0.8,0.7c-0.1,0.4,0.1,0.8,0.5,0.9c0.2,0.1,0.3,0.1,0.5,0.1
			c0.4,0,0.7,0,1.1,0l0.2,0l0,4.4l0,1.6c0,0.7,0.3,1,1,1l1.3,0l0,0.2c0,0.4,0,0.7,0,1.1c0,0.7,0.3,1,1,1c0.4,0,0.8,0,1.2,0
			c0.6,0,1.3,0,1.9,0c0.7,0,1-0.3,1-1c0-0.3,0-0.7,0-1v-0.2h1.2c0.9,0,1.1-0.3,1.1-1.1v-5.8l0.3,0c0.4,0,0.8,0,1.2,0
			c0.5,0,0.9-0.4,0.9-0.8c0-0.5-0.4-0.8-0.9-0.8c-0.4,0-0.8,0-1.1,0l-0.3,0c0,0,0,0,0,0c0-0.2,0-0.4,0-0.6c0,0,0.1-0.1,0.1-0.1
			c2.6-1.4,4.4-3.6,5.3-6.5C25,14.4,24.5,11.3,22.9,8.6z M17.1,31.5h-6.4v-0.6l0.7,0c0.8,0,1.6,0,2.4,0c0.3,0,0.5-0.1,0.7-0.3
			c0.2-0.2,0.2-0.4,0.2-0.6c0-0.5-0.4-0.8-0.9-0.8c-0.2,0-0.5,0-0.7,0l-2.4,0v-0.6l0.7,0c0.8,0,1.5,0,2.3,0c0.3,0,0.6-0.1,0.8-0.3
			c0.1-0.1,0.2-0.3,0.2-0.6c0-0.5-0.4-0.8-1-0.8c-0.7,0-1.3,0-2,0h-1v-0.6h6.4V31.5z M22.8,15.8L22.8,15.8c-0.5,3.1-2.2,5.3-5,6.7
			c-0.5,0.2-0.7,0.6-0.6,1.1c0,0.3,0,0.5,0,0.8c0,0,0,0.1,0,0.1c-3.6-5.3-6.4,0-6.4,0c0,0,0-0.1,0-0.1c0-0.3,0-0.5,0-0.7
			c0.1-0.7-0.4-1-0.8-1.2c-3.6-1.8-5.7-5.9-4.9-9.8C5.6,10.2,7,8.2,9,6.9c2-1.3,4.5-1.7,6.9-1.2C20.4,6.6,23.6,11.2,22.8,15.8z"/>
	</g>
</g>
</svg>
