<?xml version="1.0" encoding="utf-8"?>
<!-- Generator: Adobe Illustrator 25.2.0, SVG Export Plug-In . SVG Version: 6.00 Build 0)  -->
<svg version="1.1" id="Layer_1" xmlns="http://www.w3.org/2000/svg" xmlns:xlink="http://www.w3.org/1999/xlink" x="0px" y="0px"
	 viewBox="0 0 131 36" style="enable-background:new 0 0 131 36;" xml:space="preserve">
<style type="text/css">
	.Drop_x0020_Shadow{fill:none;}
	.Round_x0020_Corners_x0020_2_x0020_pt{fill:#FFFFFF;stroke:#231F20;stroke-miterlimit:10;}
	.Live_x0020_Reflect_x0020_X{fill:none;}
	.Bevel_x0020_Soft{fill:url(#SVGID_1_);}
	.Dusk{fill:#FFFFFF;}
	.Foliage_GS{fill:#FFDD00;}
	.Pompadour_GS{fill-rule:evenodd;clip-rule:evenodd;fill:#44ADE2;}
	.st0{fill:#FFFFFF;}
</style>
<linearGradient id="SVGID_1_" gradientUnits="userSpaceOnUse" x1="0" y1="0" x2="0.7071" y2="0.7071">
	<stop  offset="0" style="stop-color:#DEDFE3"/>
	<stop  offset="0.1783" style="stop-color:#DADBDF"/>
	<stop  offset="0.3611" style="stop-color:#CECFD3"/>
	<stop  offset="0.546" style="stop-color:#B9BCBF"/>
	<stop  offset="0.7324" style="stop-color:#9CA0A2"/>
	<stop  offset="0.9181" style="stop-color:#787D7E"/>
	<stop  offset="1" style="stop-color:#656B6C"/>
</linearGradient>
<g>
	<g>
		<path class="st0" d="M0.7,9.6C0.3,9.6,0,9.3,0,8.9V7.7c0-0.4,0.3-0.7,0.7-0.7h11.3c0.4,0,0.7,0.3,0.7,0.7v1.3
			c0,0.4-0.3,0.7-0.7,0.7H8.2C8,9.6,7.8,9.8,7.8,10v14.7c0,0.4-0.3,0.7-0.7,0.7H5.7c-0.4,0-0.7-0.3-0.7-0.7V10
			c0-0.3-0.1-0.4-0.4-0.4H0.7z"/>
		<path class="st0" d="M12.2,25.5c-0.4,0-0.7-0.3-0.7-0.7V14.6c0-0.4,0.3-0.7,0.7-0.7h1c0.4,0,0.7,0.3,0.7,0.7l0,0.4
			c0,0.2,0.3,0.3,0.4,0.1c0.8-1,1.5-1.5,2.7-1.5c1.2,0,2.1,0.7,2.8,1.9c0.2,0.4,0.1,0.7-0.3,0.9l-1.1,0.4c-0.4,0.2-0.7,0.1-1-0.3
			c-0.3-0.4-0.7-0.6-1.2-0.6c-0.8,0-1.4,0.6-2,1.8c-0.1,0.1-0.1,0.3-0.1,0.5v6.6c0,0.4-0.3,0.7-0.7,0.7H12.2z"/>
		<path class="st0" d="M22.4,24.5C21.5,23.6,21,22.4,21,21v-6.4c0-0.4,0.3-0.7,0.7-0.7h1.2c0.4,0,0.7,0.3,0.7,0.7V21
			c0,1.4,0.9,2.3,2.3,2.3s2.3-0.9,2.3-2.3v-6.4c0-0.4,0.3-0.7,0.7-0.7h1.2c0.4,0,0.7,0.3,0.7,0.7V21c0,1.5-0.5,2.6-1.4,3.6
			c-0.9,0.9-2.1,1.4-3.5,1.4C24.5,25.9,23.3,25.4,22.4,24.5z"/>
		<path class="st0" d="M44,20.1h-8.5c-0.2,0-0.3,0.1-0.2,0.3c0.1,0.8,0.5,1.5,1.2,2.1c0.7,0.6,1.5,0.9,2.4,0.9
			c1.2,0,2.1-0.4,2.8-1.3c0.3-0.4,0.7-0.4,1.2-0.2l0.7,0.3c0.5,0.2,0.6,0.7,0.3,1.1c-1.2,1.7-2.9,2.6-5,2.6c-1.8,0-3.2-0.6-4.5-1.8
			c-1.2-1.2-1.8-2.7-1.8-4.4s0.6-3.2,1.8-4.4c1.2-1.2,2.7-1.8,4.4-1.8s3.2,0.6,4.3,1.7c1.2,1.2,1.8,2.5,1.8,4.2
			C44.8,19.8,44.5,20.1,44,20.1z M35.7,18.2h6c0.2,0,0.3-0.1,0.2-0.3c-0.6-1.4-1.6-2.1-3.2-2.1c-1.5,0-2.6,0.7-3.2,2.1
			C35.4,18,35.5,18.2,35.7,18.2z"/>
		<path class="st0" d="M49.8,25.5c-0.4,0-0.7-0.3-0.7-0.7V7.7c0-0.4,0.3-0.7,0.7-0.7h1.4c0.4,0,0.7,0.3,0.7,0.7v14.7
			c0,0.2,0.2,0.4,0.4,0.4h6.7c0.4,0,0.7,0.3,0.7,0.7v1.3c0,0.4-0.3,0.7-0.7,0.7H49.8z"/>
		<path class="st0" d="M71.6,20.1h-8.5c-0.2,0-0.3,0.1-0.2,0.3c0.1,0.8,0.5,1.5,1.2,2.1c0.7,0.6,1.5,0.9,2.4,0.9
			c1.2,0,2.1-0.4,2.8-1.3c0.3-0.4,0.7-0.4,1.2-0.2l0.7,0.3c0.5,0.2,0.6,0.7,0.3,1.1c-1.2,1.7-2.9,2.6-5,2.6c-1.8,0-3.2-0.6-4.5-1.8
			c-1.2-1.2-1.8-2.7-1.8-4.4s0.6-3.2,1.8-4.4c1.2-1.2,2.7-1.8,4.4-1.8c1.8,0,3.2,0.6,4.3,1.7c1.2,1.2,1.8,2.5,1.8,4.2
			C72.4,19.8,72.1,20.1,71.6,20.1z M63.3,18.2h6c0.2,0,0.3-0.1,0.2-0.3c-0.6-1.4-1.6-2.1-3.2-2.1c-1.5,0-2.6,0.7-3.2,2.1
			C63,18,63.1,18.2,63.3,18.2z"/>
		<path class="st0" d="M75.2,24.1c-1.1-1.2-1.7-2.7-1.7-4.4s0.6-3.2,1.7-4.4c1.1-1.2,2.5-1.8,4.2-1.8c1.6,0,2.9,0.6,3.8,1.8
			c0.2,0.2,0.4,0.2,0.4-0.1l0-0.8c0-0.3,0.4-0.6,0.7-0.6h1c0.4,0,0.7,0.3,0.7,0.7v10.2c0,0.4-0.3,0.7-0.7,0.7h-1
			c-0.4,0-0.6-0.2-0.7-0.6l0-0.8c0-0.2-0.3-0.3-0.4-0.1c-0.9,1.2-2.2,1.8-3.8,1.8C77.7,25.9,76.3,25.3,75.2,24.1z M77.1,17
			c-0.7,0.7-1,1.6-1,2.6s0.3,1.9,1,2.6c0.7,0.7,1.6,1.1,2.6,1.1c1,0,1.9-0.4,2.6-1.1c0.7-0.7,1.1-1.6,1.1-2.6s-0.4-1.9-1.1-2.6
			c-0.7-0.7-1.6-1.1-2.6-1.1C78.7,16,77.8,16.3,77.1,17z"/>
		<path class="st0" d="M99.2,15.3c1.1,1.2,1.7,2.6,1.7,4.4s-0.6,3.2-1.7,4.4c-1.1,1.2-2.5,1.8-4.2,1.8c-1.4,0-2.6-0.5-3.6-1.5
			c-0.2-0.2-0.5-0.1-0.5,0.2v5.9c0,0.4-0.3,0.7-0.7,0.7h-1.2c-0.4,0-0.7-0.3-0.7-0.7V14.6c0-0.4,0.3-0.7,0.7-0.7H90
			c0.4,0,0.7,0.2,0.7,0.6l0,0.8c0,0.2,0.3,0.3,0.5,0.1c0.9-1.2,2.2-1.8,3.8-1.8C96.6,13.5,98.1,14.1,99.2,15.3z M92,17
			c-0.7,0.7-1,1.6-1,2.6s0.3,1.9,1,2.6c0.7,0.7,1.6,1.1,2.6,1.1c1,0,1.9-0.4,2.6-1.1c0.7-0.7,1.1-1.6,1.1-2.6s-0.4-1.9-1.1-2.6
			c-0.7-0.7-1.6-1.1-2.6-1.1C93.6,16,92.7,16.3,92,17z"/>
	</g>
	<g>
		<path class="st0" d="M4.9,29.1c-0.1,0-0.1-0.1-0.1-0.1v-0.2c0-0.1,0.1-0.1,0.1-0.1h1.7c0.1,0,0.1,0,0.1,0.1V29
			c0,0.1,0,0.1-0.1,0.1H6.1c0,0-0.1,0-0.1,0.1v2.2c0,0.1,0,0.1-0.1,0.1H5.7c-0.1,0-0.1-0.1-0.1-0.1v-2.2c0,0,0-0.1-0.1-0.1H4.9z"/>
		<path class="st0" d="M8.2,31.6c-0.4,0-0.8-0.1-1.1-0.4c-0.3-0.3-0.4-0.6-0.4-1s0.1-0.8,0.4-1c0.3-0.3,0.6-0.4,1.1-0.4
			c0.4,0,0.8,0.1,1,0.4c0.3,0.3,0.4,0.6,0.4,1s-0.1,0.8-0.4,1C9,31.4,8.7,31.6,8.2,31.6z M9,29.3C8.8,29.1,8.5,29,8.2,29
			c-0.3,0-0.5,0.1-0.7,0.3c-0.2,0.2-0.3,0.5-0.3,0.7s0.1,0.5,0.3,0.8c0.2,0.2,0.4,0.3,0.7,0.3c0.3,0,0.5-0.1,0.7-0.3
			c0.2-0.2,0.3-0.5,0.3-0.8S9.2,29.5,9,29.3z"/>
		<path class="st0" d="M9.7,28.8c0-0.1,0-0.1,0.1-0.1h0.3c0.1,0,0.1,0,0.1,0.1l0.7,1.8c0,0,0.1,0,0.1,0l0.7-1.8c0-0.1,0.1-0.1,0.2,0
			l0.7,1.8c0,0,0.1,0,0.1,0l0.7-1.8c0-0.1,0.1-0.1,0.1-0.1h0.2c0.1,0,0.1,0.1,0.1,0.1l-1,2.7c0,0.1-0.1,0.1-0.2,0l-0.7-1.9
			c0,0-0.1,0-0.1,0l-0.7,1.9c0,0.1-0.2,0.1-0.2,0L9.7,28.8z"/>
		<path class="st0" d="M13.4,31.5c-0.1,0-0.1-0.1-0.1-0.1l1.3-2.7c0-0.1,0.1-0.1,0.2,0l1.3,2.7c0,0.1,0,0.1-0.1,0.1h-0.2
			c-0.1,0-0.1,0-0.2-0.1l-0.3-0.6c0,0,0-0.1-0.1-0.1h-1.1c0,0-0.1,0-0.1,0.1l-0.3,0.6c0,0.1-0.1,0.1-0.2,0.1H13.4z M14.2,30.3
			C14.2,30.3,14.2,30.3,14.2,30.3l0.8,0.1c0,0,0,0,0-0.1l-0.4-0.8c0,0-0.1,0-0.1,0L14.2,30.3z"/>
		<path class="st0" d="M16.4,31.5c-0.1,0-0.1-0.1-0.1-0.1v-2.6c0-0.1,0.1-0.1,0.1-0.1h0.7c0.3,0,0.5,0.1,0.6,0.2
			c0.2,0.2,0.2,0.3,0.2,0.6c0,0.3-0.2,0.6-0.6,0.7c0,0,0,0,0,0.1l0.8,1.1c0,0.1,0,0.1-0.1,0.1h-0.3c-0.1,0-0.1,0-0.1-0.1l-0.8-1.1
			c0,0,0,0-0.1,0h-0.1c0,0,0,0,0,0v1c0,0.1,0,0.1-0.1,0.1H16.4z M17,30c0.3,0,0.5-0.2,0.5-0.5s-0.2-0.5-0.5-0.5h-0.2
			c0,0-0.1,0-0.1,0.1v0.8c0,0,0,0.1,0.1,0.1H17z"/>
		<path class="st0" d="M18.6,31.5c-0.1,0-0.1-0.1-0.1-0.1v-2.6c0-0.1,0.1-0.1,0.1-0.1h0.6c0.4,0,0.8,0.1,1,0.4
			c0.2,0.3,0.4,0.6,0.4,1s-0.1,0.8-0.4,1c-0.2,0.3-0.6,0.4-1,0.4H18.6z M18.9,31C18.9,31.1,18.9,31.1,18.9,31l0.3,0.1
			c0.6,0,1-0.4,1-1s-0.3-1-1-1H19c0,0-0.1,0-0.1,0.1V31z"/>
		<path class="st0" d="M21.9,29.1c-0.1,0-0.1-0.1-0.1-0.1v-0.2c0-0.1,0.1-0.1,0.1-0.1h1.7c0.1,0,0.1,0,0.1,0.1V29
			c0,0.1,0,0.1-0.1,0.1h-0.6c0,0-0.1,0-0.1,0.1v2.2c0,0.1,0,0.1-0.1,0.1h-0.2c-0.1,0-0.1-0.1-0.1-0.1v-2.2c0,0,0-0.1-0.1-0.1H21.9z"
			/>
		<path class="st0" d="M24.1,31.5c-0.1,0-0.1-0.1-0.1-0.1v-2.6c0-0.1,0.1-0.1,0.1-0.1h0.2c0.1,0,0.1,0,0.1,0.1v1c0,0,0,0.1,0.1,0.1
			h1.4c0,0,0.1,0,0.1-0.1v-1c0-0.1,0.1-0.1,0.1-0.1h0.2c0.1,0,0.1,0,0.1,0.1v2.6c0,0.1,0,0.1-0.1,0.1h-0.2c-0.1,0-0.1-0.1-0.1-0.1
			v-1.1c0,0,0-0.1-0.1-0.1h-1.4c0,0-0.1,0-0.1,0.1v1.1c0,0.1,0,0.1-0.1,0.1H24.1z"/>
		<path class="st0" d="M27.1,31.5c-0.1,0-0.1-0.1-0.1-0.1v-2.6c0-0.1,0.1-0.1,0.1-0.1h1.3c0.1,0,0.1,0,0.1,0.1V29
			c0,0.1,0,0.1-0.1,0.1h-0.9c0,0-0.1,0-0.1,0.1v0.6c0,0,0,0.1,0.1,0.1h1c0.1,0,0.1,0,0.1,0.1v0.2c0,0.1,0,0.1-0.1,0.1h-1
			c0,0-0.1,0-0.1,0.1V31c0,0,0,0.1,0.1,0.1h1c0.1,0,0.1,0.1,0.1,0.1v0.2c0,0.1,0,0.1-0.1,0.1H27.1z"/>
		<path class="st0" d="M30.2,31.5c-0.1,0-0.1-0.1-0.1-0.1v-2.6c0-0.1,0.1-0.1,0.1-0.1h1.3c0.1,0,0.1,0,0.1,0.1V29
			c0,0.1,0,0.1-0.1,0.1h-0.9c0,0-0.1,0-0.1,0.1v0.6c0,0,0,0.1,0.1,0.1h1c0.1,0,0.1,0,0.1,0.1v0.2c0,0.1,0,0.1-0.1,0.1h-1
			c0,0-0.1,0-0.1,0.1v1.1c0,0.1,0,0.1-0.1,0.1H30.2z"/>
		<path class="st0" d="M32.3,31.3c-0.2-0.2-0.3-0.5-0.3-0.8v-1.7c0-0.1,0-0.1,0.1-0.1h0.2c0.1,0,0.1,0,0.1,0.1v1.7
			c0,0.4,0.2,0.6,0.6,0.6c0.3,0,0.6-0.3,0.6-0.6v-1.7c0-0.1,0-0.1,0.1-0.1h0.2c0.1,0,0.1,0,0.1,0.1v1.7c0,0.3-0.1,0.6-0.3,0.8
			c-0.2,0.2-0.4,0.3-0.7,0.3C32.7,31.6,32.5,31.5,32.3,31.3z"/>
		<path class="st0" d="M34.4,29.1c-0.1,0-0.1-0.1-0.1-0.1v-0.2c0-0.1,0.1-0.1,0.1-0.1h1.7c0.1,0,0.1,0,0.1,0.1V29
			c0,0.1,0,0.1-0.1,0.1h-0.6c0,0-0.1,0-0.1,0.1v2.2c0,0.1,0,0.1-0.1,0.1h-0.2c-0.1,0-0.1-0.1-0.1-0.1v-2.2c0,0,0-0.1-0.1-0.1H34.4z"
			/>
		<path class="st0" d="M36.8,31.3c-0.2-0.2-0.3-0.5-0.3-0.8v-1.7c0-0.1,0-0.1,0.1-0.1h0.2c0.1,0,0.1,0,0.1,0.1v1.7
			c0,0.4,0.2,0.6,0.6,0.6c0.3,0,0.6-0.3,0.6-0.6v-1.7c0-0.1,0-0.1,0.1-0.1h0.2c0.1,0,0.1,0,0.1,0.1v1.7c0,0.3-0.1,0.6-0.3,0.8
			c-0.2,0.2-0.4,0.3-0.7,0.3C37.2,31.6,36.9,31.5,36.8,31.3z"/>
		<path class="st0" d="M39.1,31.5c-0.1,0-0.1-0.1-0.1-0.1v-2.6c0-0.1,0.1-0.1,0.1-0.1h0.7c0.3,0,0.5,0.1,0.6,0.2
			c0.2,0.2,0.2,0.3,0.2,0.6c0,0.3-0.2,0.6-0.6,0.7c0,0,0,0,0,0.1l0.8,1.1c0,0.1,0,0.1-0.1,0.1h-0.3c-0.1,0-0.1,0-0.1-0.1l-0.8-1.1
			c0,0,0,0-0.1,0h-0.1c0,0,0,0,0,0v1c0,0.1,0,0.1-0.1,0.1H39.1z M39.7,30c0.3,0,0.5-0.2,0.5-0.5s-0.2-0.5-0.5-0.5h-0.2
			c0,0-0.1,0-0.1,0.1v0.8c0,0,0,0.1,0.1,0.1H39.7z"/>
		<path class="st0" d="M41.3,31.5c-0.1,0-0.1-0.1-0.1-0.1v-2.6c0-0.1,0.1-0.1,0.1-0.1h1.3c0.1,0,0.1,0,0.1,0.1V29
			c0,0.1,0,0.1-0.1,0.1h-0.9c0,0-0.1,0-0.1,0.1v0.6c0,0,0,0.1,0.1,0.1h1c0.1,0,0.1,0,0.1,0.1v0.2c0,0.1,0,0.1-0.1,0.1h-1
			c0,0-0.1,0-0.1,0.1V31c0,0,0,0.1,0.1,0.1h1c0.1,0,0.1,0.1,0.1,0.1v0.2c0,0.1,0,0.1-0.1,0.1H41.3z"/>
		<path class="st0" d="M45.6,31.6c-0.4,0-0.8-0.1-1.1-0.4c-0.3-0.3-0.4-0.6-0.4-1s0.1-0.8,0.4-1c0.3-0.3,0.6-0.4,1.1-0.4
			c0.4,0,0.8,0.1,1,0.4c0.3,0.3,0.4,0.6,0.4,1s-0.1,0.8-0.4,1C46.4,31.4,46,31.6,45.6,31.6z M46.4,29.3c-0.2-0.2-0.4-0.3-0.7-0.3
			c-0.3,0-0.5,0.1-0.7,0.3c-0.2,0.2-0.3,0.5-0.3,0.7s0.1,0.5,0.3,0.8c0.2,0.2,0.4,0.3,0.7,0.3c0.3,0,0.5-0.1,0.7-0.3
			c0.2-0.2,0.3-0.5,0.3-0.8S46.6,29.5,46.4,29.3z"/>
		<path class="st0" d="M47.6,31.5c-0.1,0-0.1-0.1-0.1-0.1v-2.6c0-0.1,0.1-0.1,0.1-0.1h1.3c0.1,0,0.1,0,0.1,0.1V29
			c0,0.1,0,0.1-0.1,0.1H48c0,0-0.1,0-0.1,0.1v0.6c0,0,0,0.1,0.1,0.1h1c0.1,0,0.1,0,0.1,0.1v0.2c0,0.1,0,0.1-0.1,0.1h-1
			c0,0-0.1,0-0.1,0.1v1.1c0,0.1,0,0.1-0.1,0.1H47.6z"/>
		<path class="st0" d="M50.7,31.5c-0.1,0-0.1-0.1-0.1-0.1v-2.6c0-0.1,0.1-0.1,0.1-0.1h0.6c0.4,0,0.8,0.1,1,0.4
			c0.2,0.3,0.4,0.6,0.4,1s-0.1,0.8-0.4,1c-0.2,0.3-0.6,0.4-1,0.4H50.7z M51,31C51,31.1,51,31.1,51,31l0.3,0.1c0.6,0,1-0.4,1-1
			s-0.3-1-1-1H51c0,0-0.1,0-0.1,0.1V31z"/>
		<path class="st0" d="M53.2,31.5c-0.1,0-0.1-0.1-0.1-0.1v-2.6c0-0.1,0.1-0.1,0.1-0.1h0.2c0.1,0,0.1,0,0.1,0.1v2.6
			c0,0.1,0,0.1-0.1,0.1H53.2z"/>
		<path class="st0" d="M56.4,29c0.1,0,0.1,0.1,0,0.2l-0.1,0.1c0,0-0.1,0-0.2,0c-0.2-0.2-0.4-0.2-0.7-0.2c-0.3,0-0.6,0.1-0.8,0.3
			c-0.2,0.2-0.3,0.5-0.3,0.7s0.1,0.5,0.3,0.8c0.2,0.2,0.4,0.3,0.7,0.3c0.5,0,0.8-0.3,0.9-0.7c0,0,0-0.1,0-0.1H55
			c-0.1,0-0.1-0.1-0.1-0.1v-0.2c0-0.1,0.1-0.1,0.1-0.1h1.7c0.1,0,0.1,0,0.1,0.1c0,0.4-0.1,0.7-0.4,1c-0.3,0.3-0.6,0.4-1,0.4
			c-0.4,0-0.8-0.1-1.1-0.4c-0.3-0.3-0.4-0.6-0.4-1s0.1-0.8,0.4-1c0.3-0.3,0.6-0.4,1.1-0.4C55.8,28.6,56.1,28.7,56.4,29z"/>
		<path class="st0" d="M57.3,31.5c-0.1,0-0.1-0.1-0.1-0.1v-2.6c0-0.1,0.1-0.1,0.1-0.1h0.2c0.1,0,0.1,0,0.1,0.1v2.6
			c0,0.1,0,0.1-0.1,0.1H57.3z"/>
		<path class="st0" d="M58.1,29.1C58,29.1,58,29,58,29v-0.2c0-0.1,0.1-0.1,0.1-0.1h1.7c0.1,0,0.1,0,0.1,0.1V29c0,0.1,0,0.1-0.1,0.1
			h-0.6c0,0-0.1,0-0.1,0.1v2.2c0,0.1,0,0.1-0.1,0.1h-0.2c-0.1,0-0.1-0.1-0.1-0.1v-2.2c0,0,0-0.1-0.1-0.1H58.1z"/>
		<path class="st0" d="M59.7,31.5c-0.1,0-0.1-0.1-0.1-0.1l1.3-2.7c0-0.1,0.1-0.1,0.2,0l1.3,2.7c0,0.1,0,0.1-0.1,0.1H62
			c-0.1,0-0.1,0-0.2-0.1l-0.3-0.6c0,0,0-0.1-0.1-0.1h-1.1c0,0-0.1,0-0.1,0.1L60,31.4c0,0.1-0.1,0.1-0.2,0.1H59.7z M60.6,30.3
			C60.5,30.3,60.6,30.3,60.6,30.3l0.8,0.1c0,0,0,0,0-0.1L61,29.5c0,0-0.1,0-0.1,0L60.6,30.3z"/>
		<path class="st0" d="M62.7,31.5c-0.1,0-0.1-0.1-0.1-0.1v-2.6c0-0.1,0.1-0.1,0.1-0.1h0.2c0.1,0,0.1,0,0.1,0.1V31c0,0,0,0.1,0.1,0.1
			h1c0.1,0,0.1,0,0.1,0.1v0.2c0,0.1,0,0.1-0.1,0.1H62.7z"/>
		<path class="st0" d="M65.7,31.5c-0.1,0-0.1-0.1-0.1-0.1v-2.6c0-0.1,0.1-0.1,0.1-0.1H67c0.1,0,0.1,0,0.1,0.1V29
			c0,0.1,0,0.1-0.1,0.1h-0.9c0,0-0.1,0-0.1,0.1v0.6c0,0,0,0.1,0.1,0.1h1c0.1,0,0.1,0,0.1,0.1v0.2c0,0.1,0,0.1-0.1,0.1h-1
			c0,0-0.1,0-0.1,0.1V31c0,0,0,0.1,0.1,0.1h1c0.1,0,0.1,0.1,0.1,0.1v0.2c0,0.1,0,0.1-0.1,0.1H65.7z"/>
		<path class="st0" d="M67.7,31.5c-0.1,0-0.1-0.1-0.1-0.1v-2.6c0-0.1,0.1-0.1,0.1-0.1h0.6c0.4,0,0.8,0.1,1,0.4
			c0.2,0.3,0.4,0.6,0.4,1s-0.1,0.8-0.4,1c-0.2,0.3-0.6,0.4-1,0.4H67.7z M68.1,31C68.1,31.1,68.1,31.1,68.1,31l0.3,0.1
			c0.6,0,1-0.4,1-1s-0.3-1-1-1h-0.2c0,0-0.1,0-0.1,0.1V31z"/>
		<path class="st0" d="M70.4,31.3c-0.2-0.2-0.3-0.5-0.3-0.8v-1.7c0-0.1,0-0.1,0.1-0.1h0.2c0.1,0,0.1,0,0.1,0.1v1.7
			c0,0.4,0.2,0.6,0.6,0.6c0.3,0,0.6-0.3,0.6-0.6v-1.7c0-0.1,0-0.1,0.1-0.1H72c0.1,0,0.1,0,0.1,0.1v1.7c0,0.3-0.1,0.6-0.3,0.8
			c-0.2,0.2-0.4,0.3-0.7,0.3C70.8,31.6,70.6,31.5,70.4,31.3z"/>
		<path class="st0" d="M72.9,31.1c-0.3-0.3-0.4-0.6-0.4-1s0.1-0.8,0.4-1c0.3-0.3,0.6-0.4,1.1-0.4c0.5,0,0.9,0.2,1.1,0.5
			c0,0.1,0,0.1,0,0.2l-0.1,0.1c-0.1,0-0.1,0-0.2,0c-0.2-0.2-0.5-0.4-0.8-0.4c-0.3,0-0.5,0.1-0.7,0.3c-0.2,0.2-0.3,0.4-0.3,0.7
			s0.1,0.5,0.3,0.7s0.4,0.3,0.7,0.3c0.3,0,0.6-0.2,0.8-0.4c0.1-0.1,0.1-0.1,0.2,0l0.1,0.1c0.1,0.1,0.1,0.1,0,0.2
			c-0.3,0.4-0.7,0.6-1.2,0.6C73.5,31.6,73.2,31.4,72.9,31.1z"/>
		<path class="st0" d="M75.2,31.5c-0.1,0-0.1-0.1-0.1-0.1l1.3-2.7c0-0.1,0.1-0.1,0.2,0l1.3,2.7c0,0.1,0,0.1-0.1,0.1h-0.2
			c-0.1,0-0.1,0-0.2-0.1l-0.3-0.6c0,0,0-0.1-0.1-0.1H76c0,0-0.1,0-0.1,0.1l-0.3,0.6c0,0.1-0.1,0.1-0.2,0.1H75.2z M76.1,30.3
			C76.1,30.3,76.1,30.3,76.1,30.3l0.8,0.1c0,0,0,0,0-0.1l-0.4-0.8c0,0-0.1,0-0.1,0L76.1,30.3z"/>
		<path class="st0" d="M77.7,29.1c-0.1,0-0.1-0.1-0.1-0.1v-0.2c0-0.1,0.1-0.1,0.1-0.1h1.7c0.1,0,0.1,0,0.1,0.1V29
			c0,0.1,0,0.1-0.1,0.1h-0.6c0,0-0.1,0-0.1,0.1v2.2c0,0.1,0,0.1-0.1,0.1h-0.2c-0.1,0-0.1-0.1-0.1-0.1v-2.2c0,0,0-0.1-0.1-0.1H77.7z"
			/>
		<path class="st0" d="M79.9,31.5c-0.1,0-0.1-0.1-0.1-0.1v-2.6c0-0.1,0.1-0.1,0.1-0.1h0.2c0.1,0,0.1,0,0.1,0.1v2.6
			c0,0.1,0,0.1-0.1,0.1H79.9z"/>
		<path class="st0" d="M82.1,31.6c-0.4,0-0.8-0.1-1.1-0.4c-0.3-0.3-0.4-0.6-0.4-1s0.1-0.8,0.4-1c0.3-0.3,0.6-0.4,1.1-0.4
			s0.8,0.1,1,0.4c0.3,0.3,0.4,0.6,0.4,1s-0.1,0.8-0.4,1C82.9,31.4,82.6,31.6,82.1,31.6z M82.9,29.3c-0.2-0.2-0.4-0.3-0.7-0.3
			c-0.3,0-0.5,0.1-0.7,0.3c-0.2,0.2-0.3,0.5-0.3,0.7s0.1,0.5,0.3,0.8c0.2,0.2,0.4,0.3,0.7,0.3c0.3,0,0.5-0.1,0.7-0.3
			c0.2-0.2,0.3-0.5,0.3-0.8S83.1,29.5,82.9,29.3z"/>
		<path class="st0" d="M86.3,31.4c0,0.1-0.1,0.1-0.2,0.1l-1.6-1.8c0,0-0.1,0-0.1,0v1.7c0,0.1-0.1,0.1-0.1,0.1h-0.2
			c-0.1,0-0.1-0.1-0.1-0.1v-2.6c0-0.1,0.1-0.1,0.2-0.1l1.6,1.8c0,0,0.1,0,0.1,0v-1.7c0-0.1,0-0.1,0.1-0.1h0.2c0.1,0,0.1,0,0.1,0.1
			V31.4z"/>
	</g>
	<g>
		<g>
			<path class="st0" d="M116.5,1.7c0,0.2,0,0.4,0,0.6c0,0.3,0.3,0.5,0.6,0.5c0.3,0,0.6-0.2,0.6-0.5c0-0.4,0-0.8,0-1.2
				c0-0.3-0.3-0.5-0.6-0.5c-0.3,0-0.5,0.2-0.6,0.5c0,0,0,0,0,0.1C116.5,1.3,116.5,1.5,116.5,1.7C116.5,1.7,116.5,1.7,116.5,1.7z"/>
			<path class="st0" d="M129.8,15c0.2,0,0.4,0,0.7,0c0.3,0,0.5-0.3,0.5-0.6c0-0.3-0.2-0.6-0.5-0.6c-0.4,0-0.8,0-1.2,0
				c-0.3,0-0.5,0.3-0.5,0.6c0,0.3,0.2,0.5,0.5,0.6C129.4,15,129.6,15,129.8,15z"/>
			<path class="st0" d="M104.3,15c0.2,0,0.4,0,0.7,0c0.3,0,0.5-0.3,0.5-0.6c0-0.3-0.2-0.6-0.5-0.6c-0.4,0-0.8,0-1.2,0
				c-0.3,0-0.5,0.3-0.5,0.6c0,0.3,0.2,0.5,0.5,0.6C104,15,104.2,15,104.3,15z"/>
			<path class="st0" d="M129.7,11.1c0.2-0.1,0.4-0.1,0.6-0.2c0.3-0.1,0.5-0.4,0.4-0.7c-0.1-0.3-0.3-0.5-0.7-0.4
				c-0.4,0.1-0.8,0.2-1.2,0.3c-0.3,0.1-0.5,0.4-0.4,0.7c0.1,0.3,0.3,0.5,0.7,0.4C129.3,11.2,129.5,11.1,129.7,11.1z"/>
			<path class="st0" d="M104.8,11.1c-0.2-0.1-0.4-0.1-0.6-0.2c-0.3-0.1-0.5-0.4-0.4-0.7c0.1-0.3,0.3-0.5,0.7-0.4
				c0.4,0.1,0.8,0.2,1.2,0.3c0.3,0.1,0.5,0.4,0.4,0.7c-0.1,0.3-0.3,0.5-0.7,0.4C105.2,11.2,105,11.1,104.8,11.1z"/>
			<path class="st0" d="M129.7,17.7c0.2,0.1,0.4,0.1,0.6,0.2c0.3,0.1,0.5,0.4,0.4,0.7c-0.1,0.3-0.3,0.5-0.7,0.4
				c-0.4-0.1-0.8-0.2-1.2-0.3c-0.3-0.1-0.5-0.4-0.4-0.7c0.1-0.3,0.3-0.5,0.7-0.4C129.3,17.6,129.5,17.6,129.7,17.7z"/>
			<path class="st0" d="M104.8,17.7c-0.2,0.1-0.4,0.1-0.6,0.2c-0.3,0.1-0.5,0.4-0.4,0.7c0.1,0.3,0.3,0.5,0.7,0.4
				c0.4-0.1,0.8-0.2,1.2-0.3c0.3-0.1,0.5-0.4,0.4-0.7c-0.1-0.3-0.3-0.5-0.7-0.4C105.2,17.6,105,17.6,104.8,17.7z"/>
			<path class="st0" d="M120.3,2.7c0,0.4,0.1,0.6,0.4,0.7c0.3,0.1,0.6,0,0.7-0.3c0.2-0.4,0.3-0.9,0.4-1.3c0.1-0.3-0.1-0.5-0.4-0.6
				c-0.3-0.1-0.5,0-0.7,0.2C120.6,1.9,120.4,2.3,120.3,2.7z"/>
			<path class="st0" d="M113.2,3.4c0.5,0,0.8-0.3,0.7-0.7c-0.1-0.4-0.2-0.8-0.4-1.2c-0.1-0.3-0.4-0.5-0.7-0.4
				c-0.3,0.1-0.5,0.4-0.4,0.7c0.1,0.4,0.2,0.7,0.4,1.1C112.9,3.2,113.1,3.3,113.2,3.4z"/>
			<path class="st0" d="M105.8,6.7c0.1,0.1,0.1,0.3,0.3,0.4c0.3,0.2,0.6,0.5,0.9,0.7c0.3,0.2,0.6,0.1,0.8-0.1
				c0.2-0.3,0.1-0.6-0.1-0.8c-0.3-0.2-0.6-0.5-1-0.7C106.3,5.8,105.8,6.1,105.8,6.7z"/>
			<path class="st0" d="M107.9,21.6c0-0.5-0.5-0.8-0.9-0.6c-0.4,0.2-0.7,0.5-1,0.8c-0.2,0.2-0.3,0.5-0.1,0.7
				c0.2,0.3,0.5,0.3,0.7,0.2c0.4-0.2,0.7-0.5,1.1-0.8C107.8,21.9,107.8,21.7,107.9,21.6z"/>
			<path class="st0" d="M126.4,21.6c0-0.5,0.5-0.8,0.9-0.6c0.4,0.2,0.7,0.5,1,0.8c0.2,0.2,0.3,0.5,0.1,0.7c-0.2,0.3-0.5,0.3-0.7,0.2
				c-0.4-0.2-0.7-0.5-1.1-0.8C126.5,21.9,126.4,21.7,126.4,21.6z"/>
			<path class="st0" d="M109.9,5.1c0.5,0,0.8-0.5,0.6-0.9c-0.2-0.4-0.5-0.7-0.7-1C109.5,3,109.2,3,109,3.2c-0.3,0.2-0.4,0.5-0.2,0.7
				c0.2,0.4,0.5,0.7,0.8,1.1C109.7,5.1,109.8,5.1,109.9,5.1z"/>
			<path class="st0" d="M124.9,5.1c-0.5,0-0.8-0.5-0.6-0.9c0.2-0.4,0.5-0.7,0.7-1c0.2-0.2,0.5-0.3,0.7-0.1c0.3,0.2,0.4,0.5,0.2,0.7
				c-0.2,0.4-0.5,0.7-0.8,1.1C125.2,5.1,125,5.1,124.9,5.1z"/>
			<path class="st0" d="M126.9,7.2c0,0.5,0.5,0.8,0.9,0.6c0.4-0.2,0.7-0.5,1-0.8c0.2-0.2,0.3-0.5,0.1-0.7c-0.2-0.2-0.4-0.3-0.7-0.2
				c-0.4,0.2-0.8,0.5-1.1,0.8C126.9,7,126.9,7.1,126.9,7.2z"/>
		</g>
		<path class="st0" d="M124.1,14.2c-1.1-0.5-2.2-0.7-3.3-0.6c-1.4,0.2-2.3,1-2.9,2.2c-0.1,0.1-0.1,0.2-0.2,0.3c0-0.2,0-0.5,0-0.7
			c0-0.2,0.1-0.4,0.2-0.5c0.5-0.6,1-1.2,1.4-1.9c0.5-1,0.5-2.1,0.1-3.1c-0.4-0.9-1-1.7-1.8-2.4c-0.3-0.2-0.5-0.3-0.8,0
			c-1,0.8-1.8,1.8-2.1,3.1c-0.2,0.9-0.1,1.9,0.4,2.7c0.4,0.6,0.8,1.1,1.2,1.7c0.1,0.1,0.2,0.3,0.2,0.5c0,0.3,0,0.6,0,0.8
			c-0.1-0.1-0.1-0.3-0.2-0.4c-0.7-1.1-1.6-2-2.9-2.2c-1.2-0.1-2.3,0.1-3.3,0.6c-0.4,0.2-0.5,0.4-0.3,0.8c0.2,0.5,0.4,1,0.6,1.5
			c0.9,1.7,2.3,2.5,4.1,2.3c0.5-0.1,1.1-0.2,1.6-0.4c0.2-0.1,0.4-0.1,0.5-0.2c0,1.4,0,2.7,0,4.1c0,0.2,0,0.3,0,0.5
			c0,0.3,0.3,0.6,0.6,0.6c0.3,0,0.6-0.2,0.6-0.6c0-0.1,0-0.2,0-0.3c0-1.2,0-2.4,0-3.5c0-0.2,0-0.5,0-0.7c0.1,0.1,0.3,0.1,0.4,0.2
			c0.5,0.2,1.1,0.3,1.6,0.4c1.8,0.2,3.3-0.6,4.1-2.3c0.2-0.5,0.4-1,0.6-1.5C124.6,14.6,124.4,14.3,124.1,14.2z M112.8,16.6
			c0.6,0.3,1.3,0.6,1.9,0.9c-1.9,0.6-3.2-0.4-3.9-2.4c1.4-1,3.8-0.3,4.4,1.4c-0.3-0.1-0.5-0.2-0.7-0.3c-0.4-0.2-0.8-0.4-1.3-0.6
			c-0.3-0.1-0.7,0-0.8,0.3C112.4,16.1,112.5,16.5,112.8,16.6z M116.5,11.1c0,0.3,0,0.6,0,0.8c0,0.4,0,0.9,0,1.4
			c-1.3-1.4-0.9-3.6,0.6-4.6c1.5,1.4,1.8,3,0.6,4.6c0-0.8,0-1.5,0-2.2c0-0.4-0.2-0.6-0.6-0.6C116.7,10.5,116.5,10.7,116.5,11.1z
			 M119.3,17.5c0.6-0.3,1.3-0.6,1.9-0.9c0.3-0.2,0.4-0.5,0.3-0.8c-0.1-0.3-0.5-0.4-0.8-0.3c-0.4,0.2-0.9,0.4-1.3,0.6
			c-0.2,0.1-0.4,0.2-0.7,0.3c0.6-1.6,3-2.4,4.4-1.4C122.5,17.1,121.2,18,119.3,17.5z"/>
		<path class="st0" d="M126.1,8.6c-1.7-2.6-4.3-4.3-7.3-4.8c-5.8-0.9-11.1,2.8-12.2,8.6c-0.8,4.4,1.3,9.1,5.3,11.2
			c0.3,0.2,0.3,0.3,0.3,0.5c0,0.1,0,0.2,0,0.3l-0.3,0c-0.4,0-0.8,0-1.2,0c-0.4,0-0.8,0.3-0.8,0.7c-0.1,0.4,0.1,0.8,0.5,0.9
			c0.2,0.1,0.3,0.1,0.5,0.1c0.4,0,0.7,0,1.1,0l0.2,0l0,4.4l0,1.6c0,0.7,0.3,1,1,1l1.3,0l0,0.2c0,0.4,0,0.7,0,1.1c0,0.7,0.3,1,1,1
			c0.4,0,0.8,0,1.2,0c0.6,0,1.3,0,1.9,0c0.7,0,1-0.3,1-1c0-0.3,0-0.7,0-1v-0.2h1.2c0.9,0,1.1-0.3,1.1-1.1v-5.8l0.3,0
			c0.4,0,0.8,0,1.2,0c0.5,0,0.9-0.4,0.9-0.8c0-0.5-0.4-0.8-0.9-0.8c-0.4,0-0.8,0-1.1,0l-0.3,0c0,0,0,0,0,0c0-0.2,0-0.4,0-0.6
			c0,0,0.1-0.1,0.1-0.1c2.6-1.4,4.4-3.6,5.3-6.5C128.2,14.4,127.8,11.3,126.1,8.6z M120.3,31.5h-6.4v-0.6l0.7,0c0.8,0,1.6,0,2.4,0
			c0.3,0,0.5-0.1,0.7-0.3c0.2-0.2,0.2-0.4,0.2-0.6c0-0.5-0.4-0.8-0.9-0.8c-0.2,0-0.5,0-0.7,0l-2.4,0v-0.6l0.7,0c0.8,0,1.5,0,2.3,0
			c0.3,0,0.6-0.1,0.8-0.3c0.1-0.1,0.2-0.3,0.2-0.6c0-0.5-0.4-0.8-1-0.8c-0.7,0-1.3,0-2,0h-1v-0.6h6.4V31.5z M126,15.8L126,15.8
			c-0.5,3.1-2.2,5.3-5,6.7c-0.5,0.2-0.7,0.6-0.6,1.1c0,0.3,0,0.5,0,0.8c0,0,0,0.1,0,0.1c-3.6-5.3-6.4,0-6.4,0c0,0,0-0.1,0-0.1
			c0-0.3,0-0.5,0-0.7c0.1-0.7-0.4-1-0.8-1.2c-3.6-1.8-5.7-5.9-4.9-9.8c0.5-2.4,1.9-4.5,3.9-5.8c2-1.3,4.5-1.7,6.9-1.2
			C123.6,6.6,126.8,11.2,126,15.8z"/>
	</g>
</g>
</svg>
