<?xml version="1.0" encoding="utf-8"?>
<!-- Generator: Adobe Illustrator 25.1.0, SVG Export Plug-In . SVG Version: 6.00 Build 0)  -->
<svg version="1.1" id="Layer_1" xmlns="http://www.w3.org/2000/svg" xmlns:xlink="http://www.w3.org/1999/xlink" x="0px" y="0px"
	 viewBox="0 0 24 24" style="enable-background:new 0 0 24 24;" xml:space="preserve">
<style type="text/css">
	.Drop_x0020_Shadow{fill:none;}
	.Round_x0020_Corners_x0020_2_x0020_pt{fill:#FFFFFF;stroke:#000000;stroke-miterlimit:10;}
	.Live_x0020_Reflect_x0020_X{fill:none;}
	.Bevel_x0020_Soft{fill:url(#SVGID_1_);}
	.Dusk{fill:#FFFFFF;}
	.Foliage_GS{fill:#FFDD00;}
	.Pompadour_GS{fill-rule:evenodd;clip-rule:evenodd;fill:#44ADE2;}
	.st0{fill:#010101;}
</style>
<linearGradient id="SVGID_1_" gradientUnits="userSpaceOnUse" x1="0" y1="0" x2="0.7071" y2="0.7071">
	<stop  offset="0" style="stop-color:#DEDFE3"/>
	<stop  offset="0.1738" style="stop-color:#D8D9DD"/>
	<stop  offset="0.352" style="stop-color:#C9CACD"/>
	<stop  offset="0.5323" style="stop-color:#B4B5B8"/>
	<stop  offset="0.7139" style="stop-color:#989A9C"/>
	<stop  offset="0.8949" style="stop-color:#797C7E"/>
	<stop  offset="1" style="stop-color:#656B6C"/>
</linearGradient>
<path class="st0" d="M15.9,20H4V5.9h2.7v2h6.6v-2h2.7v2h1v-3h-4.9c-0.3-0.5-0.8-0.9-1.4-1.1c0,0,0-0.1,0-0.1C10.7,3.3,10.4,3,10,3
	C9.6,3,9.2,3.3,9.2,3.8c0,0,0,0.1,0,0.1C8.7,4,8.2,4.4,7.9,4.9H3V21h13.9v-1.9h-1V20z M7.7,5.9h0.9c0,0,0-0.1,0-0.1
	C8.7,5.4,8.9,5.1,9.2,5c0,0,0,0,0,0C9.5,4.8,9.7,4.7,10,4.7c0.3,0,0.5,0.1,0.8,0.2c0,0,0,0,0,0c0.3,0.2,0.5,0.5,0.6,0.8
	c0,0,0,0.1,0,0.1h0.9v0.9H7.7V5.9z M21,9.5v1H9.8v-1H21z M9.8,13.3H18v1H9.8V13.3z M15,18.1H9.8v-1H15V18.1z"/>
</svg>
