<?xml version="1.0" encoding="utf-8"?>
<!-- Generator: Adobe Illustrator 25.1.0, SVG Export Plug-In . SVG Version: 6.00 Build 0)  -->
<svg version="1.1" id="Layer_1" xmlns="http://www.w3.org/2000/svg" xmlns:xlink="http://www.w3.org/1999/xlink" x="0px" y="0px"
	 viewBox="0 0 24 24" style="enable-background:new 0 0 24 24;" xml:space="preserve">
<style type="text/css">
	.Drop_x0020_Shadow{fill:none;}
	.Round_x0020_Corners_x0020_2_x0020_pt{fill:#FFFFFF;stroke:#000000;stroke-miterlimit:10;}
	.Live_x0020_Reflect_x0020_X{fill:none;}
	.Bevel_x0020_Soft{fill:url(#SVGID_1_);}
	.Dusk{fill:#FFFFFF;}
	.Foliage_GS{fill:#FFDD00;}
	.Pompadour_GS{fill-rule:evenodd;clip-rule:evenodd;fill:#44ADE2;}
</style>
<linearGradient id="SVGID_1_" gradientUnits="userSpaceOnUse" x1="0" y1="0" x2="0.7071" y2="0.7071">
	<stop  offset="0" style="stop-color:#DEDFE3"/>
	<stop  offset="0.1738" style="stop-color:#D8D9DD"/>
	<stop  offset="0.352" style="stop-color:#C9CACD"/>
	<stop  offset="0.5323" style="stop-color:#B4B5B8"/>
	<stop  offset="0.7139" style="stop-color:#989A9C"/>
	<stop  offset="0.8949" style="stop-color:#797C7E"/>
	<stop  offset="1" style="stop-color:#656B6C"/>
</linearGradient>
<g id="Group_1323" transform="translate(-41 -41)">
	<path id="Path_478" d="M46.4,54c-0.2,0-0.3,0.1-0.3,0.3c0,0,0,0,0,0v5.2c0,0.2,0.1,0.3,0.3,0.3c0.2,0,0.3-0.1,0.3-0.3c0,0,0,0,0,0
		v-5.2C46.6,54.1,46.5,54,46.4,54z"/>
	<path id="Path_479" d="M53,45.6c3.5,0,6.4,2.9,6.4,6.4v1.2c0,0.2,0.1,0.3,0.3,0.3c0.2,0,0.3-0.1,0.3-0.3V52c0-3.8-3.1-6.9-6.9-6.9
		s-6.9,3.1-6.9,6.9v0.2c0,0.2,0.1,0.3,0.3,0.3c0.2,0,0.3-0.1,0.3-0.3c0,0,0,0,0,0V52C46.6,48.5,49.5,45.6,53,45.6z"/>
	<path id="Path_480" d="M53,46.1c-3.3,0-5.9,2.6-5.9,5.9v7.9c0,0.2,0.1,0.3,0.3,0.3c0.1,0,0.3-0.1,0.3-0.3V52c0-2.9,2.4-5.3,5.3-5.3
		c2.9,0,5.3,2.4,5.3,5.3v3c0,0.2,0.1,0.3,0.3,0.3c0.2,0,0.3-0.1,0.3-0.3c0,0,0,0,0,0v-3C58.9,48.8,56.3,46.1,53,46.1z"/>
	<path id="Path_481" d="M52.7,47.3c-2,0-3.7,1.6-3.7,3.7v8.5c0,0.2,0.1,0.3,0.3,0.3c0.2,0,0.3-0.1,0.3-0.3V51c0-1.7,1.4-3.1,3.1-3.1
		c2,0,3.7,1.6,3.7,3.7v3c0,0.2,0.1,0.3,0.3,0.3c0.2,0,0.3-0.1,0.3-0.3v-3C57,49.2,55.1,47.3,52.7,47.3z"/>
	<path id="Path_482" d="M53,48.8c-1.6,0-2.9,1.3-2.9,2.9v1.5c0,0.2,0.1,0.3,0.3,0.3c0.2,0,0.3-0.1,0.3-0.3v-1.5
		c0-1.3,1.1-2.4,2.4-2.4c1.3,0,2.4,1.1,2.4,2.4c0,0,0,0,0,0v8c0,0.2,0.1,0.3,0.3,0.3c0.1,0,0.3-0.1,0.3-0.3v-8
		C56,50.1,54.6,48.8,53,48.8z"/>
	<path id="Path_483" d="M53,50.3c-0.8,0-1.5,0.7-1.5,1.5v2.4c0,0.2,0.1,0.3,0.3,0.3c0.2,0,0.3-0.1,0.3-0.3c0,0,0,0,0,0v-2.4
		c0-0.5,0.4-0.9,0.9-0.9c0.5,0,0.9,0.4,0.9,0.9c0,0,0,0,0,0.1v5c0,1.2-0.9,2.1-2.1,2.1c-0.2,0-0.3,0.1-0.3,0.3
		c0,0.2,0.1,0.3,0.3,0.3c0,0,0,0,0,0c1.5,0,2.7-1.2,2.7-2.7v-5C54.4,51,53.8,50.3,53,50.3z"/>
	<path id="Path_484" d="M52,58.5c0.7,0,1.3-0.6,1.3-1.3v-2c0-0.2-0.1-0.3-0.3-0.3c-0.2,0-0.3,0.1-0.3,0.3v2c0,0.4-0.3,0.8-0.8,0.8
		h-0.2c-0.4,0-0.8-0.3-0.8-0.8c0-0.2-0.1-0.3-0.3-0.3c-0.2,0-0.3,0.1-0.3,0.3c0,0.7,0.6,1.3,1.3,1.3L52,58.5z"/>
	<path id="Path_485" d="M59.9,58.6v-3.8c0-0.2-0.1-0.3-0.3-0.3c-0.2,0-0.3,0.1-0.3,0.3v3.8c0,0.2,0.1,0.3,0.3,0.3
		C59.8,58.9,59.9,58.8,59.9,58.6z"/>
	<path id="Path_486" d="M44.3,44c-0.2,0-0.3,0.1-0.3,0.3v1.9c0,0.2,0.1,0.3,0.3,0.3c0.2,0,0.3-0.1,0.3-0.3v-1.6h1.6
		c0.2,0,0.3-0.1,0.3-0.3c0-0.2-0.1-0.3-0.3-0.3H44.3z"/>
	<path id="Path_487" d="M61.7,44h-1.9c-0.2,0-0.3,0.1-0.3,0.3c0,0.2,0.1,0.3,0.3,0.3h1.6v1.6c0,0.2,0.1,0.3,0.3,0.3
		c0.1,0,0.3-0.1,0.3-0.3v-1.9C62,44.1,61.9,44,61.7,44C61.7,44,61.7,44,61.7,44z"/>
	<path id="Path_488" d="M46.2,61.4h-1.6v-1.6c0-0.2-0.1-0.3-0.3-0.3c-0.2,0-0.3,0.1-0.3,0.3v1.9c0,0.2,0.1,0.3,0.3,0.3h1.9
		c0.2,0,0.3-0.1,0.3-0.3C46.4,61.6,46.3,61.4,46.2,61.4L46.2,61.4z"/>
	<path id="Path_489" d="M61.7,59.5c-0.2,0-0.3,0.1-0.3,0.3c0,0,0,0,0,0v1.6h-1.6c-0.2,0-0.3,0.1-0.3,0.3c0,0.2,0.1,0.3,0.3,0.3
		c0,0,0,0,0,0h1.9c0.2,0,0.3-0.1,0.3-0.3c0,0,0,0,0,0v-1.9C62,59.7,61.9,59.5,61.7,59.5C61.7,59.5,61.7,59.5,61.7,59.5z"/>
	<path id="Path_490" d="M58.6,56.8c-0.2,0-0.3,0.1-0.3,0.3c0,0,0,0,0,0v2.4c0,0.2,0.1,0.3,0.3,0.3c0.2,0,0.3-0.1,0.3-0.3
		c0,0,0,0,0,0v-2.4C58.9,56.9,58.8,56.8,58.6,56.8C58.6,56.8,58.6,56.8,58.6,56.8z"/>
	<path id="Path_491" d="M56.7,55.5c-0.2,0-0.3,0.1-0.3,0.3v2.5c0,0.2,0.1,0.3,0.3,0.3c0.2,0,0.3-0.1,0.3-0.3v-2.5
		C57,55.6,56.8,55.5,56.7,55.5L56.7,55.5z"/>
	<path id="Path_492" d="M52.1,57.3v-0.7c0-0.2-0.1-0.3-0.3-0.3c-0.1,0-0.3,0.1-0.3,0.3v0.7c0,0.2,0.1,0.3,0.3,0.3
		C51.9,57.6,52,57.5,52.1,57.3C52.1,57.3,52.1,57.3,52.1,57.3z"/>
	<path id="Path_493" d="M50.6,55.5v-1.3c0-0.2-0.1-0.3-0.3-0.3c-0.2,0-0.3,0.1-0.3,0.3v1.3c0,0.2,0.1,0.3,0.3,0.3
		C50.5,55.8,50.6,55.7,50.6,55.5L50.6,55.5z"/>
</g>
</svg>
