<?xml version="1.0" encoding="utf-8"?>
<!-- Generator: Adobe Illustrator 25.2.0, SVG Export Plug-In . SVG Version: 6.00 Build 0)  -->
<svg version="1.1" id="Layer_1" xmlns="http://www.w3.org/2000/svg" xmlns:xlink="http://www.w3.org/1999/xlink" x="0px" y="0px"
	 viewBox="0 0 24 24" style="enable-background:new 0 0 24 24;" xml:space="preserve">
<style type="text/css">
	.Drop_x0020_Shadow{fill:none;}
	.Round_x0020_Corners_x0020_2_x0020_pt{fill:#FFFFFF;stroke:#231F20;stroke-miterlimit:10;}
	.Live_x0020_Reflect_x0020_X{fill:none;}
	.Bevel_x0020_Soft{fill:url(#SVGID_1_);}
	.Dusk{fill:#FFFFFF;}
	.Foliage_GS{fill:#FFDD00;}
	.Pompadour_GS{fill-rule:evenodd;clip-rule:evenodd;fill:#44ADE2;}
	.st0{fill:#FFFFFF;}
</style>
<linearGradient id="SVGID_1_" gradientUnits="userSpaceOnUse" x1="0" y1="0" x2="0.7071" y2="0.7071">
	<stop  offset="0" style="stop-color:#DEDFE3"/>
	<stop  offset="0.1783" style="stop-color:#DADBDF"/>
	<stop  offset="0.3611" style="stop-color:#CECFD3"/>
	<stop  offset="0.546" style="stop-color:#B9BCBF"/>
	<stop  offset="0.7324" style="stop-color:#9CA0A2"/>
	<stop  offset="0.9181" style="stop-color:#787D7E"/>
	<stop  offset="1" style="stop-color:#656B6C"/>
</linearGradient>
<path class="st0" d="M20.7,8.7c-0.6,0-1.2,0.2-1.7,0.5L14.9,5c0.3-0.5,0.5-1.1,0.5-1.7C15.3,1.5,13.8,0,12,0S8.7,1.5,8.7,3.3
	c0,0.6,0.2,1.2,0.5,1.7L5,9.1C4.5,8.8,3.9,8.7,3.3,8.7C1.5,8.7,0,10.2,0,12s1.5,3.3,3.3,3.3c0.6,0,1.1-0.1,1.6-0.4h0l4.1,4.1
	c-0.3,0.5-0.4,1-0.4,1.6c0,1.8,1.5,3.3,3.3,3.3s3.3-1.5,3.3-3.3c0-0.6-0.2-1.2-0.4-1.6l4.1-4.1c0.5,0.3,1,0.4,1.6,0.4
	c1.8,0,3.3-1.5,3.3-3.3S22.5,8.7,20.7,8.7z M12,1.3c1.1,0,2,0.9,2,2c0,0.3,0,0.5-0.1,0.7c-0.2,0.4-0.5,0.8-0.9,1
	c-0.3,0.2-0.6,0.3-1,0.3S11.3,5.2,11,5c-0.4-0.2-0.7-0.6-0.9-1C10,3.8,10,3.6,10,3.3C10,2.2,10.9,1.3,12,1.3z M5,13.1
	c-0.3,0.4-0.6,0.7-1.1,0.8C3.7,14,3.5,14,3.3,14c-1.1,0-2-0.9-2-2c0-1.1,0.9-2,2-2c0.2,0,0.5,0,0.7,0.1C4.4,10.3,4.8,10.6,5,11
	c0.2,0.3,0.3,0.7,0.3,1C5.3,12.4,5.2,12.8,5,13.1z M12,22.7c-1.1,0-2-0.9-2-2c0-0.2,0-0.4,0.1-0.6c0.1-0.5,0.4-0.8,0.8-1.1
	c0.3-0.2,0.7-0.3,1.1-0.3c0.4,0,0.8,0.1,1.1,0.3c0.4,0.2,0.7,0.6,0.8,1.1c0.1,0.2,0.1,0.4,0.1,0.6C14,21.8,13.1,22.7,12,22.7z
	 M14,18c-0.6-0.4-1.3-0.7-2-0.7c-0.8,0-1.5,0.3-2.1,0.7l-4-4c0.5-0.6,0.7-1.3,0.7-2.1c0-0.7-0.3-1.5-0.7-2l4-4
	c0.5,0.4,1.3,0.7,2,0.7c0.7,0,1.4-0.2,2-0.7l4,4c-0.4,0.5-0.7,1.2-0.7,2c0,0.8,0.3,1.5,0.7,2L14,18z M20.7,14c-0.2,0-0.4,0-0.6-0.1
	c-0.4-0.1-0.8-0.4-1.1-0.8c-0.2-0.3-0.3-0.7-0.3-1.1c0-0.4,0.1-0.7,0.3-1c0.2-0.4,0.6-0.7,1-0.9c0.2-0.1,0.5-0.1,0.7-0.1
	c1.1,0,2,0.9,2,2C22.7,13.1,21.8,14,20.7,14z"/>
</svg>
