<?xml version="1.0" encoding="utf-8"?>
<!-- Generator: Adobe Illustrator 25.1.0, SVG Export Plug-In . SVG Version: 6.00 Build 0)  -->
<svg version="1.1" id="Layer_1" xmlns="http://www.w3.org/2000/svg" xmlns:xlink="http://www.w3.org/1999/xlink" x="0px" y="0px"
	 viewBox="0 0 24 24" style="enable-background:new 0 0 24 24;" xml:space="preserve">
<style type="text/css">
	.Drop_x0020_Shadow{fill:none;}
	.Round_x0020_Corners_x0020_2_x0020_pt{fill:#FFFFFF;stroke:#000000;stroke-miterlimit:10;}
	.Live_x0020_Reflect_x0020_X{fill:none;}
	.Bevel_x0020_Soft{fill:url(#SVGID_1_);}
	.Dusk{fill:#FFFFFF;}
	.Foliage_GS{fill:#FFDD00;}
	.Pompadour_GS{fill-rule:evenodd;clip-rule:evenodd;fill:#44ADE2;}
</style>
<linearGradient id="SVGID_1_" gradientUnits="userSpaceOnUse" x1="0" y1="0" x2="0.7071" y2="0.7071">
	<stop  offset="0" style="stop-color:#DEDFE3"/>
	<stop  offset="0.1738" style="stop-color:#D8D9DD"/>
	<stop  offset="0.352" style="stop-color:#C9CACD"/>
	<stop  offset="0.5323" style="stop-color:#B4B5B8"/>
	<stop  offset="0.7139" style="stop-color:#989A9C"/>
	<stop  offset="0.8949" style="stop-color:#797C7E"/>
	<stop  offset="1" style="stop-color:#656B6C"/>
</linearGradient>
<path id="Path_545" d="M18.5,9.5c-0.5,0-0.9,0.1-1.3,0.3l-3.1-3.1c0.7-1.2,0.3-2.7-0.9-3.4C12.1,2.6,10.6,3,9.9,4.2
	C9.6,4.6,9.5,5,9.5,5.5c0,0.4,0.1,0.9,0.3,1.2L6.8,9.8C6.4,9.6,5.9,9.5,5.5,9.5C4.1,9.5,3,10.6,3,12c0,1.4,1.1,2.5,2.5,2.5
	c0.4,0,0.8-0.1,1.2-0.3h0l3.1,3.1c-0.2,0.4-0.3,0.8-0.3,1.2c0,1.4,1.1,2.5,2.5,2.5c1.4,0,2.5-1.1,2.5-2.5c0,0,0-0.1,0-0.1
	c0-0.4-0.1-0.9-0.3-1.2l3.1-3.1c0.4,0.2,0.8,0.3,1.2,0.3c1.4,0,2.5-1.2,2.5-2.5C21,10.6,19.9,9.5,18.5,9.5L18.5,9.5z M12,4
	c0.8,0,1.5,0.7,1.5,1.5c0,0,0,0,0,0c0,0.2,0,0.4-0.1,0.5c-0.1,0.3-0.3,0.6-0.7,0.8C12.5,6.9,12.3,7,12,7c-0.3,0-0.5-0.1-0.8-0.2
	c-0.3-0.2-0.5-0.4-0.6-0.8c-0.1-0.2-0.1-0.3-0.1-0.5C10.5,4.7,11.2,4,12,4C12,4,12,4,12,4L12,4z M6.8,12.8c-0.2,0.3-0.5,0.5-0.8,0.6
	c-0.1,0-0.3,0.1-0.4,0.1C4.7,13.5,4,12.8,4,12s0.7-1.5,1.5-1.5c0.2,0,0.3,0,0.5,0.1c0.3,0.1,0.6,0.3,0.8,0.6C6.9,11.4,7,11.7,7,12
	C7,12.3,6.9,12.6,6.8,12.8L6.8,12.8z M12,20c-0.8,0-1.5-0.7-1.5-1.5c0,0,0,0,0,0c0-0.1,0-0.3,0.1-0.4c0.1-0.3,0.3-0.6,0.6-0.8
	c0.2-0.2,0.5-0.3,0.8-0.2c0.3,0,0.6,0.1,0.8,0.2c0.3,0.2,0.5,0.5,0.6,0.8c0.3,0.8-0.1,1.6-0.9,1.9C12.4,19.9,12.2,20,12,20L12,20z
	 M13.5,16.5c-0.9-0.7-2.2-0.7-3.1,0l-3-3C7.8,13.1,8,12.5,8,12c0-0.5-0.2-1.1-0.5-1.5l3-3C11,7.8,11.5,8,12,8c0.5,0,1-0.2,1.5-0.5
	l3,3c-0.7,0.9-0.7,2.1,0,3L13.5,16.5z M18.5,13.5c-0.2,0-0.3,0-0.5-0.1c-0.3-0.1-0.6-0.3-0.8-0.6c-0.3-0.5-0.3-1.1,0-1.5
	c0.2-0.3,0.4-0.5,0.8-0.6c0.2-0.1,0.3-0.1,0.5-0.1c0.8,0,1.5,0.7,1.5,1.5S19.4,13.5,18.5,13.5L18.5,13.5L18.5,13.5z"/>
</svg>
