<?xml version="1.0" encoding="utf-8"?>
<!-- Generator: Adobe Illustrator 25.1.0, SVG Export Plug-In . SVG Version: 6.00 Build 0)  -->
<svg version="1.1" id="Layer_1" xmlns="http://www.w3.org/2000/svg" xmlns:xlink="http://www.w3.org/1999/xlink" x="0px" y="0px"
	 viewBox="0 0 24 24" style="enable-background:new 0 0 24 24;" xml:space="preserve">
<style type="text/css">
	.Drop_x0020_Shadow{fill:none;}
	.Round_x0020_Corners_x0020_2_x0020_pt{fill:#FFFFFF;stroke:#000000;stroke-miterlimit:10;}
	.Live_x0020_Reflect_x0020_X{fill:none;}
	.Bevel_x0020_Soft{fill:url(#SVGID_1_);}
	.Dusk{fill:#FFFFFF;}
	.Foliage_GS{fill:#FFDD00;}
	.Pompadour_GS{fill-rule:evenodd;clip-rule:evenodd;fill:#44ADE2;}
	.st0{fill:#010101;}
</style>
<linearGradient id="SVGID_1_" gradientUnits="userSpaceOnUse" x1="0" y1="0" x2="0.7071" y2="0.7071">
	<stop  offset="0" style="stop-color:#DEDFE3"/>
	<stop  offset="0.1738" style="stop-color:#D8D9DD"/>
	<stop  offset="0.352" style="stop-color:#C9CACD"/>
	<stop  offset="0.5323" style="stop-color:#B4B5B8"/>
	<stop  offset="0.7139" style="stop-color:#989A9C"/>
	<stop  offset="0.8949" style="stop-color:#797C7E"/>
	<stop  offset="1" style="stop-color:#656B6C"/>
</linearGradient>
<path id="sparkTransformationAction" class="st0" d="M18.5,14.9c-0.6,0-1.2,0.3-1.7,0.7l-2.1-1.4c0.4-0.6,0.6-1.3,0.6-2
	c0-1-0.4-1.9-1-2.5L15,9c0.4,0.3,0.8,0.5,1.3,0.5c1.1,0,2-0.9,2-2s-0.9-2-2-2c-1.1,0-2,0.9-2,2c0,0.4,0.1,0.8,0.3,1.1l0,0l-0.7,0.6
	c-0.6-0.5-1.4-0.8-2.2-0.8c-0.4,0-0.9,0.1-1.2,0.2L9.8,7.5c0.6-0.4,1-1.2,1-2C10.9,4.1,9.8,3,8.4,3S6,4.1,6,5.5S7.1,8,8.4,8
	C8.7,8,9,7.9,9.3,7.8l0.6,1.1c-1.1,0.6-1.9,1.8-1.9,3.2c0,0.8,0.3,1.6,0.7,2.2l-2,2.1C6.4,16.2,6,16,5.5,16C4.1,16,3,17.1,3,18.5
	S4.1,21,5.5,21s2.5-1.1,2.5-2.5c0-0.6-0.2-1.1-0.5-1.6l2-2.1c0.6,0.6,1.5,0.9,2.4,0.9c1.1,0,2-0.5,2.7-1.2l2,1.4
	c-0.3,0.4-0.4,0.9-0.4,1.4c0,1.4,1.1,2.5,2.5,2.5c1.4,0,2.5-1.1,2.5-2.5C21,16,19.9,14.9,18.5,14.9z"/>
</svg>
