<?xml version="1.0" encoding="utf-8"?>
<!-- Generator: Adobe Illustrator 25.2.0, SVG Export Plug-In . SVG Version: 6.00 Build 0)  -->
<svg version="1.1" id="Layer_1" xmlns="http://www.w3.org/2000/svg" xmlns:xlink="http://www.w3.org/1999/xlink" x="0px" y="0px"
	 viewBox="0 0 24 24" style="enable-background:new 0 0 24 24;" xml:space="preserve">
<style type="text/css">
	.Drop_x0020_Shadow{fill:none;}
	.Round_x0020_Corners_x0020_2_x0020_pt{fill:#FFFFFF;stroke:#231F20;stroke-miterlimit:10;}
	.Live_x0020_Reflect_x0020_X{fill:none;}
	.Bevel_x0020_Soft{fill:url(#SVGID_1_);}
	.Dusk{fill:#FFFFFF;}
	.Foliage_GS{fill:#FFDD00;}
	.Pompadour_GS{fill-rule:evenodd;clip-rule:evenodd;fill:#44ADE2;}
	.st0{fill:#FFFFFF;}
</style>
<linearGradient id="SVGID_1_" gradientUnits="userSpaceOnUse" x1="0" y1="0" x2="0.7071" y2="0.7071">
	<stop  offset="0" style="stop-color:#DEDFE3"/>
	<stop  offset="0.1783" style="stop-color:#DADBDF"/>
	<stop  offset="0.3611" style="stop-color:#CECFD3"/>
	<stop  offset="0.546" style="stop-color:#B9BCBF"/>
	<stop  offset="0.7324" style="stop-color:#9CA0A2"/>
	<stop  offset="0.9181" style="stop-color:#787D7E"/>
	<stop  offset="1" style="stop-color:#656B6C"/>
</linearGradient>
<path id="sparkTransformationAction" class="st0" d="M20.7,15.9c-0.9,0-1.6,0.3-2.2,0.9l-2.8-1.9c0.5-0.8,0.8-1.7,0.8-2.7
	c0-1.3-0.5-2.5-1.3-3.4L16,8c0.5,0.4,1.1,0.7,1.8,0.7c1.5,0,2.7-1.2,2.7-2.7s-1.2-2.7-2.7-2.7c-1.5,0-2.7,1.2-2.7,2.7
	c0,0.5,0.2,1,0.4,1.4l0,0l-0.9,0.9c-0.8-0.6-1.8-1-2.9-1c-0.6,0-1.1,0.1-1.7,0.3L9.1,6c0.8-0.6,1.4-1.6,1.4-2.7C10.5,1.5,9,0,7.2,0
	S4,1.5,4,3.3s1.5,3.3,3.3,3.3c0.4,0,0.8-0.1,1.2-0.2l0.8,1.5c-1.5,0.8-2.5,2.4-2.5,4.3c0,1.1,0.4,2.1,1,3l-2.7,2.8
	c-0.5-0.3-1.1-0.6-1.8-0.6c-1.8,0-3.3,1.5-3.3,3.3S1.5,24,3.3,24s3.3-1.5,3.3-3.3c0-0.8-0.3-1.5-0.7-2.1l2.6-2.7
	c0.9,0.7,2,1.2,3.2,1.2c1.4,0,2.7-0.6,3.6-1.6l2.7,1.9c-0.4,0.5-0.6,1.2-0.6,1.9c0,1.9,1.5,3.4,3.3,3.4c1.8,0,3.3-1.5,3.3-3.4
	C24,17.4,22.5,15.9,20.7,15.9z"/>
</svg>
