<?xml version="1.0" encoding="utf-8"?>
<!-- Generator: Adobe Illustrator 25.2.0, SVG Export Plug-In . SVG Version: 6.00 Build 0)  -->
<svg version="1.1" id="Layer_1" xmlns="http://www.w3.org/2000/svg" xmlns:xlink="http://www.w3.org/1999/xlink" x="0px" y="0px"
	 viewBox="0 0 24 24" style="enable-background:new 0 0 24 24;" xml:space="preserve">
<style type="text/css">
	.Drop_x0020_Shadow{fill:none;}
	.Round_x0020_Corners_x0020_2_x0020_pt{fill:#FFFFFF;stroke:#231F20;stroke-miterlimit:10;}
	.Live_x0020_Reflect_x0020_X{fill:none;}
	.Bevel_x0020_Soft{fill:url(#SVGID_1_);}
	.Dusk{fill:#FFFFFF;}
	.Foliage_GS{fill:#FFDD00;}
	.Pompadour_GS{fill-rule:evenodd;clip-rule:evenodd;fill:#44ADE2;}
	.st0{fill:#FFFFFF;}
</style>
<linearGradient id="SVGID_1_" gradientUnits="userSpaceOnUse" x1="0" y1="0" x2="0.7071" y2="0.7071">
	<stop  offset="0" style="stop-color:#DEDFE3"/>
	<stop  offset="0.1783" style="stop-color:#DADBDF"/>
	<stop  offset="0.3611" style="stop-color:#CECFD3"/>
	<stop  offset="0.546" style="stop-color:#B9BCBF"/>
	<stop  offset="0.7324" style="stop-color:#9CA0A2"/>
	<stop  offset="0.9181" style="stop-color:#787D7E"/>
	<stop  offset="1" style="stop-color:#656B6C"/>
</linearGradient>
<g>
	<path class="st0" d="M3.1,5.1l6.7,6.7l-4,8.6c-3-1.9-4.9-5.3-4.9-8.9C0.9,9.2,1.7,7,3.1,5.1 M3.1,3.7C1.2,5.8,0,8.5,0,11.6
		c0,4.5,2.5,8.3,6.3,10.3l4.6-9.9c0-0.1,0.1-0.2,0.1-0.3L3.1,3.7z"/>
	<g>
		<path class="st0" d="M24,10.9c-0.1-1.2-0.3-2.4-0.7-3.6l-2,0.8L24,10.9z"/>
		<path class="st0" d="M11.1,13.6l-0.7,1.5l7.3,7.3c0.5-0.3,0.9-0.6,1.4-0.9L11.1,13.6z"/>
		<path class="st0" d="M20.3,8.5l-1.6,0.6l5,5c0.1-0.6,0.2-1.3,0.3-2L20.3,8.5z"/>
		<path class="st0" d="M15.2,10.6l-1.6,0.6l7.9,7.9c0.3-0.4,0.6-0.9,0.9-1.3L15.2,10.6z"/>
		<path class="st0" d="M16.1,10.2l6.7,6.7c0.2-0.5,0.5-1.1,0.6-1.6l-5.7-5.7L16.1,10.2z"/>
		<path class="st0" d="M12.6,11.6l-0.7,0.3l-0.4,0.8l8.2,8.2c0.4-0.3,0.8-0.7,1.1-1.1L12.6,11.6z"/>
		<path class="st0" d="M7.7,21l-1,2.1c1.2,0.5,2.6,0.8,4,0.9L7.7,21z"/>
		<path class="st0" d="M10,16.1l-0.7,1.5l5.9,5.9c0.6-0.2,1.1-0.4,1.6-0.6L10,16.1z"/>
		<path class="st0" d="M8.8,18.5l-0.7,1.5l3.9,3.9c0.7,0,1.3-0.1,2-0.2L8.8,18.5z"/>
	</g>
	<g>
		<path class="st0" d="M11.7,11l10.4-4.2C20.3,2.8,16.2,0,11.5,0c-3,0-5.8,1.2-7.8,3L11.7,11z"/>
	</g>
</g>
</svg>
