<?xml version="1.0" encoding="utf-8"?>
<!-- Generator: Adobe Illustrator 25.1.0, SVG Export Plug-In . SVG Version: 6.00 Build 0)  -->
<svg version="1.1" id="Layer_1" xmlns="http://www.w3.org/2000/svg" xmlns:xlink="http://www.w3.org/1999/xlink" x="0px" y="0px"
	 viewBox="0 0 24 24" style="enable-background:new 0 0 24 24;" xml:space="preserve">
<style type="text/css">
	.Drop_x0020_Shadow{fill:none;}
	.Round_x0020_Corners_x0020_2_x0020_pt{fill:#FFFFFF;stroke:#000000;stroke-miterlimit:10;}
	.Live_x0020_Reflect_x0020_X{fill:none;}
	.Bevel_x0020_Soft{fill:url(#SVGID_1_);}
	.Dusk{fill:#FFFFFF;}
	.Foliage_GS{fill:#FFDD00;}
	.Pompadour_GS{fill-rule:evenodd;clip-rule:evenodd;fill:#44ADE2;}
	.st0{fill:#010101;}
</style>
<linearGradient id="SVGID_1_" gradientUnits="userSpaceOnUse" x1="0" y1="0" x2="0.7071" y2="0.7071">
	<stop  offset="0" style="stop-color:#DEDFE3"/>
	<stop  offset="0.1738" style="stop-color:#D8D9DD"/>
	<stop  offset="0.352" style="stop-color:#C9CACD"/>
	<stop  offset="0.5323" style="stop-color:#B4B5B8"/>
	<stop  offset="0.7139" style="stop-color:#989A9C"/>
	<stop  offset="0.8949" style="stop-color:#797C7E"/>
	<stop  offset="1" style="stop-color:#656B6C"/>
</linearGradient>
<path id="dateStamp" class="st0" d="M9,9H7V3h2V9z M17,3h-2v4c0.7,0,1.4,0.1,2,0.3V3z M18,6v1.6c1.2,0.5,2.2,1.2,3,2.1V6H18z M5,19
	v-7h2.6c0.3-0.7,0.7-1.4,1.2-2H6V6H3v15h6.7c-0.6-0.6-1.2-1.3-1.6-2H5z M14,6h-4v2.8c1.1-0.9,2.5-1.5,4-1.7V6z M15,11h-1v4v1h1h3v-1
	h-3V11z M21,15c0,3.3-2.7,6-6,6c-1.8,0-3.4-0.8-4.5-2c-1-1.1-1.5-2.5-1.5-4c0-1.1,0.3-2.1,0.8-3c0.9-1.5,2.4-2.6,4.2-2.9
	C14.3,9,14.7,9,15,9c1.1,0,2.1,0.3,3,0.8C19.8,10.8,21,12.8,21,15z M20,15c0-1.8-1-3.4-2.5-4.3C16.7,10.2,15.9,10,15,10
	c-0.3,0-0.6,0-0.8,0.1c-1.5,0.3-2.8,1.1-3.5,2.4C10.2,13.3,10,14.1,10,15c0,1.2,0.5,2.4,1.3,3.3c0.9,1.1,2.3,1.7,3.7,1.7
	C17.8,20,20,17.8,20,15z"/>
</svg>
