<?xml version="1.0" encoding="utf-8"?>
<!-- Generator: Adobe Illustrator 25.2.0, SVG Export Plug-In . SVG Version: 6.00 Build 0)  -->
<svg version="1.1" id="Layer_1" xmlns="http://www.w3.org/2000/svg" xmlns:xlink="http://www.w3.org/1999/xlink" x="0px" y="0px"
	 viewBox="0 0 24 24" style="enable-background:new 0 0 24 24;" xml:space="preserve">
<style type="text/css">
	.Drop_x0020_Shadow{fill:none;}
	.Round_x0020_Corners_x0020_2_x0020_pt{fill:#FFFFFF;stroke:#231F20;stroke-miterlimit:10;}
	.Live_x0020_Reflect_x0020_X{fill:none;}
	.Bevel_x0020_Soft{fill:url(#SVGID_1_);}
	.Dusk{fill:#FFFFFF;}
	.Foliage_GS{fill:#FFDD00;}
	.Pompadour_GS{fill-rule:evenodd;clip-rule:evenodd;fill:#44ADE2;}
	.st0{fill:#FFFFFF;}
</style>
<linearGradient id="SVGID_1_" gradientUnits="userSpaceOnUse" x1="0" y1="0" x2="0.7071" y2="0.7071">
	<stop  offset="0" style="stop-color:#DEDFE3"/>
	<stop  offset="0.1783" style="stop-color:#DADBDF"/>
	<stop  offset="0.3611" style="stop-color:#CECFD3"/>
	<stop  offset="0.546" style="stop-color:#B9BCBF"/>
	<stop  offset="0.7324" style="stop-color:#9CA0A2"/>
	<stop  offset="0.9181" style="stop-color:#787D7E"/>
	<stop  offset="1" style="stop-color:#656B6C"/>
</linearGradient>
<path id="dateStamp" class="st0" d="M8,8H5.3V0H8V8z M18.7,0H16v5.3c0.9,0,1.8,0.1,2.7,0.3V0z M20,4v2.1c1.5,0.6,2.9,1.6,4,2.8V4H20
	z M2.7,21.3V12h3.5c0.4-1,0.9-1.9,1.6-2.7H4V4H0v20h9c-0.9-0.8-1.6-1.7-2.2-2.7H2.7z M14.7,4H9.3v3.7c1.5-1.2,3.3-2,5.3-2.3V4z
	 M16,10.7h-1.3V16v1.3H16h4V16h-4V10.7z M24,16c0,4.4-3.6,8-8,8c-2.4,0-4.5-1-5.9-2.7C8.8,19.9,8,18.1,8,16c0-1.5,0.4-2.8,1.1-4
	c1.2-2,3.2-3.5,5.6-3.9C15.1,8,15.5,8,16,8c1.5,0,2.8,0.4,4,1.1C22.4,10.5,24,13,24,16z M22.7,16c0-2.4-1.3-4.6-3.3-5.8
	c-1-0.6-2.1-0.9-3.3-0.9c-0.4,0-0.7,0-1.1,0.1c-2,0.3-3.7,1.5-4.7,3.2c-0.6,1-0.9,2.1-0.9,3.3c0,1.6,0.6,3.2,1.7,4.4
	c1.3,1.4,3.1,2.2,5,2.2C19.7,22.7,22.7,19.7,22.7,16z"/>
</svg>
