<?xml version="1.0" encoding="utf-8"?>
<!-- Generator: Adobe Illustrator 25.2.0, SVG Export Plug-In . SVG Version: 6.00 Build 0)  -->
<svg version="1.1" id="Layer_1" xmlns="http://www.w3.org/2000/svg" xmlns:xlink="http://www.w3.org/1999/xlink" x="0px" y="0px"
	 viewBox="0 0 24 24" style="enable-background:new 0 0 24 24;" xml:space="preserve">
<style type="text/css">
	.Drop_x0020_Shadow{fill:none;}
	.Round_x0020_Corners_x0020_2_x0020_pt{fill:#FFFFFF;stroke:#231F20;stroke-miterlimit:10;}
	.Live_x0020_Reflect_x0020_X{fill:none;}
	.Bevel_x0020_Soft{fill:url(#SVGID_1_);}
	.Dusk{fill:#FFFFFF;}
	.Foliage_GS{fill:#FFDD00;}
	.Pompadour_GS{fill-rule:evenodd;clip-rule:evenodd;fill:#44ADE2;}
	.st0{fill:#FFFFFF;}
</style>
<linearGradient id="SVGID_1_" gradientUnits="userSpaceOnUse" x1="0" y1="0" x2="0.7071" y2="0.7071">
	<stop  offset="0" style="stop-color:#DEDFE3"/>
	<stop  offset="0.1783" style="stop-color:#DADBDF"/>
	<stop  offset="0.3611" style="stop-color:#CECFD3"/>
	<stop  offset="0.546" style="stop-color:#B9BCBF"/>
	<stop  offset="0.7324" style="stop-color:#9CA0A2"/>
	<stop  offset="0.9181" style="stop-color:#787D7E"/>
	<stop  offset="1" style="stop-color:#656B6C"/>
</linearGradient>
<path class="st0" d="M8.7,17.7c-0.2,0.1-0.5-0.1-0.6-0.2l-0.9-1.4l-1.6-0.3c-0.2,0-0.4-0.2-0.5-0.4l-0.3-1.6l-0.1-0.1L0,20.9
	l4.2-0.8L5.3,24l3.8-6.4L8.7,17.7z M19.3,13.6l-0.1,0.1l-0.3,1.6c0,0.2-0.2,0.4-0.5,0.4l-1.6,0.3l-0.9,1.4c-0.1,0.2-0.4,0.3-0.6,0.2
	l-0.4-0.1l3.8,6.4l1.1-3.9l4.2,0.8L19.3,13.6z M20.9,8.9l-1.1-1.6l0.4-1.9l-1.6-1l-0.3-1.9l-1.9-0.3l-1-1.6l-1.9,0.4L12,0l-1.6,1.1
	L8.6,0.7l-1,1.6L5.7,2.6L5.3,4.5l-1.6,1l0.4,1.9L3.1,8.9l1.1,1.6l-0.4,1.8l1.6,1l0.3,1.9l1.9,0.3l1,1.6l1.9-0.4l1.6,1.1l1.6-1.1
	l1.9,0.4l1-1.6l1.9-0.3l0.3-1.9l1.6-1l-0.4-1.8L20.9,8.9z M12,15.4c-3.5,0-6.4-2.9-6.4-6.4c0-3.5,2.9-6.4,6.4-6.4s6.4,2.9,6.4,6.4
	C18.4,12.5,15.5,15.4,12,15.4z M16.5,7L16,7.6L11.8,12l-0.6,0.6l-0.6-0.5L8.1,9.9L7.5,9.3l1.1-1.3l0.6,0.6l1.9,1.7l3.6-3.9l0.6-0.6
	L16.5,7z"/>
</svg>
