<?xml version="1.0" encoding="utf-8"?>
<!-- Generator: Adobe Illustrator 25.1.0, SVG Export Plug-In . SVG Version: 6.00 Build 0)  -->
<svg version="1.1" id="Layer_1" xmlns="http://www.w3.org/2000/svg" xmlns:xlink="http://www.w3.org/1999/xlink" x="0px" y="0px"
	 viewBox="0 0 24 24" style="enable-background:new 0 0 24 24;" xml:space="preserve">
<style type="text/css">
	.Drop_x0020_Shadow{fill:none;}
	.Round_x0020_Corners_x0020_2_x0020_pt{fill:#FFFFFF;stroke:#000000;stroke-miterlimit:10;}
	.Live_x0020_Reflect_x0020_X{fill:none;}
	.Bevel_x0020_Soft{fill:url(#SVGID_1_);}
	.Dusk{fill:#FFFFFF;}
	.Foliage_GS{fill:#FFDD00;}
	.Pompadour_GS{fill-rule:evenodd;clip-rule:evenodd;fill:#44ADE2;}
	.st0{fill:#010101;}
</style>
<linearGradient id="SVGID_1_" gradientUnits="userSpaceOnUse" x1="0" y1="0" x2="0.7071" y2="0.7071">
	<stop  offset="0" style="stop-color:#DEDFE3"/>
	<stop  offset="0.1738" style="stop-color:#D8D9DD"/>
	<stop  offset="0.352" style="stop-color:#C9CACD"/>
	<stop  offset="0.5323" style="stop-color:#B4B5B8"/>
	<stop  offset="0.7139" style="stop-color:#989A9C"/>
	<stop  offset="0.8949" style="stop-color:#797C7E"/>
	<stop  offset="1" style="stop-color:#656B6C"/>
</linearGradient>
<path class="st0" d="M9.5,16.3c-0.2,0-0.3,0-0.4-0.2l-0.7-1l-1.2-0.2c-0.2,0-0.3-0.2-0.3-0.3l-0.2-1.2l-0.1-0.1L3,18.7l3.1-0.6L7,21
	l2.9-4.8L9.5,16.3z M17.5,13.2L17.5,13.2l-0.3,1.3c0,0.2-0.2,0.3-0.3,0.3l-1.2,0.2l-0.7,1c-0.1,0.1-0.3,0.2-0.4,0.2l-0.3-0.1L17,21
	l0.8-2.9l3.1,0.6L17.5,13.2z M18.7,9.7l-0.8-1.2l0.3-1.4L17,6.4L16.7,5l-1.4-0.3l-0.8-1.2l-1.4,0.3L12,3l-1.2,0.8L9.4,3.5L8.7,4.7
	L7.3,5L7,6.4L5.8,7.1l0.3,1.4L5.3,9.7l0.8,1.2l-0.3,1.4L7,13l0.3,1.4l1.4,0.3l0.8,1.2l1.4-0.3l1.2,0.8l1.2-0.8l1.4,0.3l0.8-1.2
	l1.4-0.3L17,13l1.2-0.8l-0.3-1.4L18.7,9.7z M12,14.5c-2.7,0-4.8-2.2-4.8-4.8C7.2,7,9.3,4.9,12,4.9s4.8,2.2,4.8,4.8
	C16.8,12.4,14.7,14.5,12,14.5z M15.4,8.2L15,8.7L11.8,12l-0.4,0.4L11,12.1l-1.9-1.7L8.6,10L9.4,9l0.5,0.4l1.4,1.3L14,7.8l0.4-0.5
	L15.4,8.2z"/>
</svg>
