<?xml version="1.0" encoding="utf-8"?>
<!-- Generator: Adobe Illustrator 25.1.0, SVG Export Plug-In . SVG Version: 6.00 Build 0)  -->
<svg version="1.1" id="Layer_1" xmlns="http://www.w3.org/2000/svg" xmlns:xlink="http://www.w3.org/1999/xlink" x="0px" y="0px"
	 viewBox="0 0 24 24" style="enable-background:new 0 0 24 24;" xml:space="preserve">
<style type="text/css">
	.Drop_x0020_Shadow{fill:none;}
	.Round_x0020_Corners_x0020_2_x0020_pt{fill:#FFFFFF;stroke:#000000;stroke-miterlimit:10;}
	.Live_x0020_Reflect_x0020_X{fill:none;}
	.Bevel_x0020_Soft{fill:url(#SVGID_1_);}
	.Dusk{fill:#FFFFFF;}
	.Foliage_GS{fill:#FFDD00;}
	.Pompadour_GS{fill-rule:evenodd;clip-rule:evenodd;fill:#44ADE2;}
	.st0{fill:#010101;}
</style>
<linearGradient id="SVGID_1_" gradientUnits="userSpaceOnUse" x1="0" y1="0" x2="0.7071" y2="0.7071">
	<stop  offset="0" style="stop-color:#DEDFE3"/>
	<stop  offset="0.1738" style="stop-color:#D8D9DD"/>
	<stop  offset="0.352" style="stop-color:#C9CACD"/>
	<stop  offset="0.5323" style="stop-color:#B4B5B8"/>
	<stop  offset="0.7139" style="stop-color:#989A9C"/>
	<stop  offset="0.8949" style="stop-color:#797C7E"/>
	<stop  offset="1" style="stop-color:#656B6C"/>
</linearGradient>
<g>
	<path class="st0" d="M5.3,6.9l5,5l-3,6.5c-2.3-1.5-3.7-4-3.7-6.7C3.7,9.9,4.3,8.2,5.3,6.9 M5.3,5.8C3.9,7.3,3,9.4,3,11.7
		c0,3.4,1.9,6.3,4.7,7.7l3.4-7.4c0-0.1,0.1-0.1,0.1-0.2L5.3,5.8z"/>
	<g>
		<path class="st0" d="M21,11.2c0-0.9-0.2-1.8-0.5-2.7l-1.5,0.6L21,11.2z"/>
		<path class="st0" d="M11.3,13.2l-0.5,1.1l5.4,5.4c0.4-0.2,0.7-0.4,1-0.7L11.3,13.2z"/>
		<path class="st0" d="M18.2,9.4L17,9.9l3.8,3.8c0.1-0.5,0.2-1,0.2-1.5L18.2,9.4z"/>
		<path class="st0" d="M14.4,10.9l-1.2,0.5l5.9,5.9c0.2-0.3,0.5-0.7,0.7-1L14.4,10.9z"/>
		<path class="st0" d="M15.1,10.6l5,5c0.2-0.4,0.3-0.8,0.5-1.2l-4.3-4.3L15.1,10.6z"/>
		<path class="st0" d="M12.5,11.7l-0.6,0.2l-0.3,0.6l6.2,6.2c0.3-0.3,0.6-0.5,0.8-0.8L12.5,11.7z"/>
		<path class="st0" d="M8.8,18.7L8,20.3C9,20.7,10,20.9,11,21L8.8,18.7z"/>
		<path class="st0" d="M10.5,15.1l-0.5,1.1l4.4,4.4c0.4-0.1,0.8-0.3,1.2-0.5L10.5,15.1z"/>
		<path class="st0" d="M9.6,16.9L9.1,18l3,3c0.5,0,1-0.1,1.5-0.2L9.6,16.9z"/>
	</g>
	<g>
		<path class="st0" d="M11.7,11.2l7.8-3.1c-1.4-3-4.4-5.1-7.9-5.1C9.4,3,7.3,3.9,5.8,5.3L11.7,11.2z"/>
	</g>
</g>
</svg>
