<?xml version="1.0" encoding="utf-8"?>
<!-- Generator: Adobe Illustrator 25.1.0, SVG Export Plug-In . SVG Version: 6.00 Build 0)  -->
<svg version="1.1" id="Layer_1" xmlns="http://www.w3.org/2000/svg" xmlns:xlink="http://www.w3.org/1999/xlink" x="0px" y="0px"
	 viewBox="0 0 24 24" style="enable-background:new 0 0 24 24;" xml:space="preserve">
<style type="text/css">
	.Drop_x0020_Shadow{fill:none;}
	.Round_x0020_Corners_x0020_2_x0020_pt{fill:#FFFFFF;stroke:#000000;stroke-miterlimit:10;}
	.Live_x0020_Reflect_x0020_X{fill:none;}
	.Bevel_x0020_Soft{fill:url(#SVGID_1_);}
	.Dusk{fill:#FFFFFF;}
	.Foliage_GS{fill:#FFDD00;}
	.Pompadour_GS{fill-rule:evenodd;clip-rule:evenodd;fill:#44ADE2;}
	.st0{fill:#010101;}
</style>
<linearGradient id="SVGID_1_" gradientUnits="userSpaceOnUse" x1="0" y1="0" x2="0.7071" y2="0.7071">
	<stop  offset="0" style="stop-color:#DEDFE3"/>
	<stop  offset="0.1738" style="stop-color:#D8D9DD"/>
	<stop  offset="0.352" style="stop-color:#C9CACD"/>
	<stop  offset="0.5323" style="stop-color:#B4B5B8"/>
	<stop  offset="0.7139" style="stop-color:#989A9C"/>
	<stop  offset="0.8949" style="stop-color:#797C7E"/>
	<stop  offset="1" style="stop-color:#656B6C"/>
</linearGradient>
<path id="notify_1_" class="st0" d="M19,15.3V12c0-1.3-0.4-2.5-1-3.6c-1-1.7-2.7-2.9-4.7-3.3c0.1-0.2,0.2-0.4,0.2-0.6
	C13.5,3.7,12.8,3,12,3s-1.5,0.7-1.5,1.5c0,0.2,0.1,0.4,0.2,0.6C8.7,5.5,7,6.7,6,8.4C5.4,9.5,5,10.7,5,12v3.3l-2,2V19h7
	c0,1.1,0.9,2,2,2s2-0.9,2-2h7v-1.7L19,15.3z M3.7,18L6,15.7V12c0-3.3,2.7-6,6-6s6,2.7,6,6v3.7l2.3,2.3H3.7z M12,7v1
	c-2.2,0-4,1.8-4,4H7C7,9.2,9.2,7,12,7z"/>
</svg>
