<?xml version="1.0" encoding="utf-8"?>
<!-- Generator: Adobe Illustrator 25.1.0, SVG Export Plug-In . SVG Version: 6.00 Build 0)  -->
<svg version="1.1" id="Layer_1" xmlns="http://www.w3.org/2000/svg" xmlns:xlink="http://www.w3.org/1999/xlink" x="0px" y="0px"
	 viewBox="0 0 24 24" style="enable-background:new 0 0 24 24;" xml:space="preserve">
<style type="text/css">
	.Drop_x0020_Shadow{fill:none;}
	.Round_x0020_Corners_x0020_2_x0020_pt{fill:#FFFFFF;stroke:#000000;stroke-miterlimit:10;}
	.Live_x0020_Reflect_x0020_X{fill:none;}
	.Bevel_x0020_Soft{fill:url(#SVGID_1_);}
	.Dusk{fill:#FFFFFF;}
	.Foliage_GS{fill:#FFDD00;}
	.Pompadour_GS{fill-rule:evenodd;clip-rule:evenodd;fill:#44ADE2;}
	.st0{fill:#010101;}
</style>
<linearGradient id="SVGID_1_" gradientUnits="userSpaceOnUse" x1="0" y1="0" x2="0.7071" y2="0.7071">
	<stop  offset="0" style="stop-color:#DEDFE3"/>
	<stop  offset="0.1738" style="stop-color:#D8D9DD"/>
	<stop  offset="0.352" style="stop-color:#C9CACD"/>
	<stop  offset="0.5323" style="stop-color:#B4B5B8"/>
	<stop  offset="0.7139" style="stop-color:#989A9C"/>
	<stop  offset="0.8949" style="stop-color:#797C7E"/>
	<stop  offset="1" style="stop-color:#656B6C"/>
</linearGradient>
<path class="st0" d="M8.4,13.5L8.4,13.5L8.4,13.5L8.4,13.5z M11.8,21L11.8,21H12H11.8z M8.3,13.5L8.3,13.5L8.3,13.5L8.3,13.5z
	 M10.5,13.5l1.4,1.4l1.4-1.4H10.5z M5.3,14.4L6,13.7c-1.2,0.4-2,1.4-2,2.5V21h7.8L5.3,14.4z M18.7,10.3l-3.2,3.2l-3.6,3.6l-3.6-3.6
	h0l-0.9,0.9L11,18l0.9,0.9l7.7-7.7L18.7,10.3z M18.8,14.1L12,21h8v-4.7C20,15.4,19.5,14.6,18.8,14.1z M12,3C9.5,3,7.4,5,7.4,7.5
	c0,2.5,2,4.6,4.6,4.6c2.5,0,4.6-2,4.6-4.6C16.6,5,14.5,3,12,3z"/>
</svg>
