<?xml version="1.0" encoding="utf-8"?>
<!-- Generator: Adobe Illustrator 25.1.0, SVG Export Plug-In . SVG Version: 6.00 Build 0)  -->
<svg version="1.1" id="Layer_1" xmlns="http://www.w3.org/2000/svg" xmlns:xlink="http://www.w3.org/1999/xlink" x="0px" y="0px"
	 viewBox="0 0 24 24" style="enable-background:new 0 0 24 24;" xml:space="preserve">
<style type="text/css">
	.Drop_x0020_Shadow{fill:none;}
	.Round_x0020_Corners_x0020_2_x0020_pt{fill:#FFFFFF;stroke:#000000;stroke-miterlimit:10;}
	.Live_x0020_Reflect_x0020_X{fill:none;}
	.Bevel_x0020_Soft{fill:url(#SVGID_1_);}
	.Dusk{fill:#FFFFFF;}
	.Foliage_GS{fill:#FFDD00;}
	.Pompadour_GS{fill-rule:evenodd;clip-rule:evenodd;fill:#44ADE2;}
	.st0{fill:#010101;}
</style>
<linearGradient id="SVGID_1_" gradientUnits="userSpaceOnUse" x1="0" y1="0" x2="0.7071" y2="0.7071">
	<stop  offset="0" style="stop-color:#DEDFE3"/>
	<stop  offset="0.1738" style="stop-color:#D8D9DD"/>
	<stop  offset="0.352" style="stop-color:#C9CACD"/>
	<stop  offset="0.5323" style="stop-color:#B4B5B8"/>
	<stop  offset="0.7139" style="stop-color:#989A9C"/>
	<stop  offset="0.8949" style="stop-color:#797C7E"/>
	<stop  offset="1" style="stop-color:#656B6C"/>
</linearGradient>
<path id="search" class="st0" d="M16.5,15c1.2-1.6,1.8-3.7,1.4-5.9c-0.5-3-3-5.4-6-6C9.7,2.7,7.6,3.3,6,4.5C5.4,4.9,4.9,5.4,4.5,6
	c-1.2,1.6-1.8,3.7-1.4,5.9c0.5,3,3,5.4,6,6c2.2,0.4,4.3-0.2,5.9-1.4c0,0,0,0,0.1,0l4.4,4.4c0.2,0.2,0.5,0.2,0.7,0l0.7-0.7
	c0.2-0.2,0.2-0.6,0-0.8L16.5,15C16.5,15.1,16.5,15,16.5,15z M14.3,15.7c-1.3,0.9-2.9,1.4-4.6,1.2c-2.9-0.3-5.3-2.7-5.7-5.7
	C3.8,9.6,4.3,7.9,5.3,6.7c0.4-0.5,0.9-1,1.4-1.4C8,4.3,9.6,3.8,11.3,4c2.9,0.3,5.3,2.7,5.7,5.7c0.2,1.7-0.3,3.3-1.2,4.6
	C15.4,14.9,14.9,15.4,14.3,15.7z"/>
</svg>
