<?xml version="1.0" encoding="utf-8"?>
<!-- Generator: Adobe Illustrator 25.2.0, SVG Export Plug-In . SVG Version: 6.00 Build 0)  -->
<svg version="1.1" id="Layer_1" xmlns="http://www.w3.org/2000/svg" xmlns:xlink="http://www.w3.org/1999/xlink" x="0px" y="0px"
	 viewBox="0 0 24 24" style="enable-background:new 0 0 24 24;" xml:space="preserve">
<style type="text/css">
	.Drop_x0020_Shadow{fill:none;}
	.Round_x0020_Corners_x0020_2_x0020_pt{fill:#FFFFFF;stroke:#231F20;stroke-miterlimit:10;}
	.Live_x0020_Reflect_x0020_X{fill:none;}
	.Bevel_x0020_Soft{fill:url(#SVGID_1_);}
	.Dusk{fill:#FFFFFF;}
	.Foliage_GS{fill:#FFDD00;}
	.Pompadour_GS{fill-rule:evenodd;clip-rule:evenodd;fill:#44ADE2;}
	.st0{fill:#FFFFFF;}
</style>
<linearGradient id="SVGID_1_" gradientUnits="userSpaceOnUse" x1="0" y1="0" x2="0.7071" y2="0.7071">
	<stop  offset="0" style="stop-color:#DEDFE3"/>
	<stop  offset="0.1783" style="stop-color:#DADBDF"/>
	<stop  offset="0.3611" style="stop-color:#CECFD3"/>
	<stop  offset="0.546" style="stop-color:#B9BCBF"/>
	<stop  offset="0.7324" style="stop-color:#9CA0A2"/>
	<stop  offset="0.9181" style="stop-color:#787D7E"/>
	<stop  offset="1" style="stop-color:#656B6C"/>
</linearGradient>
<path id="search" class="st0" d="M18,16c1.6-2.1,2.4-4.9,1.9-7.9c-0.7-4-4-7.3-8-8C8.9-0.4,6.1,0.4,4,2.1C3.2,2.6,2.6,3.2,2.1,3.9
	c-1.6,2.1-2.4,4.9-1.9,7.9c0.7,4,4,7.3,8,8c3,0.5,5.8-0.2,7.9-1.9c0,0,0.1,0,0.1,0l5.8,5.8c0.3,0.3,0.7,0.3,1,0l0.9-0.9
	c0.3-0.3,0.3-0.8,0-1.1L18,16C18,16.1,18,16,18,16z M15.1,17c-1.7,1.3-3.8,1.9-6.2,1.6c-3.9-0.5-7.1-3.7-7.6-7.6
	C1.1,8.7,1.8,6.6,3,4.9C3.5,4.2,4.2,3.5,4.9,3c1.7-1.3,3.8-1.9,6.2-1.6C15,1.9,18.2,5,18.6,8.9c0.3,2.3-0.4,4.5-1.6,6.1
	C16.5,15.8,15.8,16.5,15.1,17z"/>
</svg>
