<?xml version="1.0" encoding="utf-8"?>
<!-- Generator: Adobe Illustrator 25.1.0, SVG Export Plug-In . SVG Version: 6.00 Build 0)  -->
<svg version="1.1" id="Layer_1" xmlns="http://www.w3.org/2000/svg" xmlns:xlink="http://www.w3.org/1999/xlink" x="0px" y="0px"
	 viewBox="0 0 24 24" style="enable-background:new 0 0 24 24;" xml:space="preserve">
<style type="text/css">
	.Drop_x0020_Shadow{fill:none;}
	.Round_x0020_Corners_x0020_2_x0020_pt{fill:#FFFFFF;stroke:#000000;stroke-miterlimit:10;}
	.Live_x0020_Reflect_x0020_X{fill:none;}
	.Bevel_x0020_Soft{fill:url(#SVGID_1_);}
	.Dusk{fill:#FFFFFF;}
	.Foliage_GS{fill:#FFDD00;}
	.Pompadour_GS{fill-rule:evenodd;clip-rule:evenodd;fill:#44ADE2;}
</style>
<linearGradient id="SVGID_1_" gradientUnits="userSpaceOnUse" x1="0" y1="0" x2="0.7071" y2="0.7071">
	<stop  offset="0" style="stop-color:#DEDFE3"/>
	<stop  offset="0.1738" style="stop-color:#D8D9DD"/>
	<stop  offset="0.352" style="stop-color:#C9CACD"/>
	<stop  offset="0.5323" style="stop-color:#B4B5B8"/>
	<stop  offset="0.7139" style="stop-color:#989A9C"/>
	<stop  offset="0.8949" style="stop-color:#797C7E"/>
	<stop  offset="1" style="stop-color:#656B6C"/>
</linearGradient>
<g id="Group_1322" transform="translate(-41 -40.949)">
	<path id="Path_476" d="M59.8,46.2H56l-3-2.4l-3,2.4h-3.7v2.9L44,50.9V62h18V50.9l-2.3-1.8V46.2z M53,44.8l1.8,1.4h-3.6L53,44.8z
		 M59,47v5.7l-2.8,2.2h-6.5L47,52.7V47L59,47z M55.3,55.6L53,57.4l-2.3-1.8L55.3,55.6z M46.3,52.1l-1.3-1l1.3-1V52.1z M44.8,61.2
		v-9.4l8.3,6.5l8.3-6.5v9.4H44.8z M61,51.1l-1.3,1v-2L61,51.1z"/>
	<rect id="Rectangle_569" x="48.5" y="48.5" width="9" height="0.8"/>
	<rect id="Rectangle_570" x="48.5" y="50.8" width="9" height="0.8"/>
	<rect id="Rectangle_571" x="48.5" y="52.6" width="9" height="0.8"/>
</g>
</svg>
