<?xml version="1.0" encoding="utf-8"?>
<!-- Generator: Adobe Illustrator 25.1.0, SVG Export Plug-In . SVG Version: 6.00 Build 0)  -->
<svg version="1.1" id="Layer_1" xmlns="http://www.w3.org/2000/svg" xmlns:xlink="http://www.w3.org/1999/xlink" x="0px" y="0px"
	 viewBox="0 0 24 24" style="enable-background:new 0 0 24 24;" xml:space="preserve">
<style type="text/css">
	.Drop_x0020_Shadow{fill:none;}
	.Round_x0020_Corners_x0020_2_x0020_pt{fill:#FFFFFF;stroke:#000000;stroke-miterlimit:10;}
	.Live_x0020_Reflect_x0020_X{fill:none;}
	.Bevel_x0020_Soft{fill:url(#SVGID_1_);}
	.Dusk{fill:#FFFFFF;}
	.Foliage_GS{fill:#FFDD00;}
	.Pompadour_GS{fill-rule:evenodd;clip-rule:evenodd;fill:#44ADE2;}
	.st0{fill:#010101;}
</style>
<linearGradient id="SVGID_1_" gradientUnits="userSpaceOnUse" x1="0" y1="0" x2="0.7071" y2="0.7071">
	<stop  offset="0" style="stop-color:#DEDFE3"/>
	<stop  offset="0.1738" style="stop-color:#D8D9DD"/>
	<stop  offset="0.352" style="stop-color:#C9CACD"/>
	<stop  offset="0.5323" style="stop-color:#B4B5B8"/>
	<stop  offset="0.7139" style="stop-color:#989A9C"/>
	<stop  offset="0.8949" style="stop-color:#797C7E"/>
	<stop  offset="1" style="stop-color:#656B6C"/>
</linearGradient>
<g transform="translate(0,-952.36218)">
	<path class="st0" d="M5.7,956.5c-0.2,0-0.4,0.2-0.4,0.4v2.5c-0.5,0-1.1-0.1-1.6-0.1c0,0,0,0,0,0c-0.2,0-0.4,0.2-0.4,0.4v10.4
		c0,0.2,0.2,0.4,0.4,0.4c4.3,0,6.2,0.8,8.4,1.8c0.1,0,0.2,0,0.3,0c2.2-1,4.1-1.8,8.4-1.8c0.2,0,0.4-0.2,0.4-0.4v-10.4
		c0-0.2-0.2-0.4-0.4-0.4c-0.6,0-1.1,0-1.6,0.1v-2.5c0-0.2-0.2-0.4-0.4-0.4c-2.5,0-4.7,0.8-6.5,2.2C10.5,957.2,8.2,956.5,5.7,956.5
		C5.7,956.5,5.7,956.5,5.7,956.5z M6.2,957.3c2.2,0.1,4.1,0.8,5.7,2v9.9c-1.5-0.8-3-1.5-5.7-1.5V957.3z M18.4,957.3v10.4
		c-2.7,0.1-4.3,0.7-5.7,1.5v-9.9C14.3,958.1,16.3,957.4,18.4,957.3z M4.1,960.2c0.4,0,0.8,0,1.2,0.1v7.9c0,0.2,0.2,0.4,0.4,0.4
		c3.1,0,4.5,0.7,6.1,1.7v1.2c-2-0.9-4-1.6-7.8-1.6V960.2z M20.5,960.2v9.6c-3.7,0.1-5.8,0.7-7.8,1.6v-1.2c1.6-1,3-1.7,6.1-1.7
		c0.2,0,0.4-0.2,0.4-0.4v-7.9C19.6,960.2,20.1,960.2,20.5,960.2z"/>
</g>
</svg>
