<svg xmlns="http://www.w3.org/2000/svg" width="70" height="70" viewBox="0 0 70 70">
    <g fill="none" fill-rule="evenodd">
        <path fill="#690BF0" d="M37.23 4.533c-3.252 12.685-3.803 18.989-3.25 19.088.589.106 2.494-6.103 5.922 5.363 5.974 19.982-18.423 28.207-9.775 35.3 7.791 6.389 8.086-5.303 12.73-6.84 1.285-.426 15.871 6.177 16.12-2.473.12-4.208-3.835-8.48-2.33-12.412.635-1.66 15.823-6.27 8.562-12.766-2.143-1.918-7.029-.047-8.203-2.672-8.718-19.49 8.592-5.502-.828-16.055C46.435.152 52.334 25.46 39.17 5.95l-1.94-1.416z" opacity=".318" transform="translate(1 1)"/>
        <path fill="#0631A0" stroke="#0631A0" stroke-width=".4" d="M38.783 0c1.006.384 1.47 1.158 1.715 2.176.59 2.444 1.243 4.873 1.872 7.309.022.085.042.173.08.252.227.487 2.537 1.217 3.007.944 2.236-1.298 4.468-2.603 6.704-3.9 1.289-.748 2.2-.575 3.251.5 1.778 1.82 3.59 3.61 5.386 5.41 1.048 1.05 1.154 1.913.393 3.208-1.266 2.153-2.52 4.313-3.806 6.453-.265.44-.394.826-.08 1.273.013.018.026.038.03.06.266 1.52 1.291 2.061 2.709 2.353 2.071.426 4.103 1.047 6.15 1.59 1.26.334 1.805 1.04 1.806 2.333v8.1c-.001 1.252-.554 1.986-1.761 2.304-2.539.67-5.078 1.338-7.623 1.982-.413.104-.561.35-.776.685-.899 1.404-.598 2.59.295 3.905 1.152 1.696 2.098 3.532 3.13 5.308.662 1.137.546 2.049-.393 2.99-1.874 1.881-3.753 3.758-5.635 5.632-.962.958-1.864 1.061-3.048.366-2.211-1.297-4.427-2.587-6.627-3.902-.38-.228-.683-.194-1.103-.095-1.606.378-2.243 1.408-2.537 2.973-.382 2.033-1.018 4.018-1.555 6.021-.326 1.215-1.053 1.767-2.3 1.768-2.722.002-5.444.003-8.166 0-1.207-.001-1.957-.572-2.261-1.732-.666-2.54-1.339-5.077-1.972-7.625-.111-.448-.302-.708-.739-.802-.085-.019-.178-.04-.248-.09-1.188-.836-2.217-.498-3.352.243-1.792 1.171-3.688 2.184-5.542 3.26-1.175.68-2.08.559-3.045-.405-1.864-1.86-3.727-3.722-5.587-5.586-.972-.975-1.09-1.862-.403-3.04 1.304-2.233 2.606-4.467 3.928-6.689.214-.359.18-.65.089-1.046-.366-1.598-1.385-2.264-2.947-2.556-1.926-.359-3.8-.986-5.708-1.446-.997-.24-1.74-.724-2.114-1.702V29.22c.386-1.004 1.157-1.474 2.178-1.715 1.997-.47 3.961-1.093 5.97-1.498 1.29-.26 2.195-.756 2.436-2.124.019-.106.074-.21.133-.303.247-.383.172-.71-.058-1.098-1.32-2.223-2.611-4.463-3.909-6.7-.677-1.167-.574-2.057.36-2.994 1.89-1.898 3.783-3.792 5.68-5.681.912-.908 1.896-1.023 3.005-.37 2.057 1.212 4.13 2.397 6.158 3.653.7.433 1.305.636 2.045.145.306-.202.717-.244 1.032-.436.232-.14.491-.379.558-.622.664-2.426 1.317-4.856 1.915-7.3.249-1.017.712-1.79 1.717-2.176h9.563zm-2.19 4.277h-5.191c-.682 2.556-1.379 5.084-2.022 7.625-.249.986-.828 1.534-1.767 1.865-1.163.41-2.316.87-3.422 1.414-.952.468-1.783.442-2.686-.103-2.211-1.334-4.45-2.622-6.587-3.876L11.2 14.93c1.287 2.208 2.602 4.485 3.939 6.749.468.793.487 1.55.105 2.392-.565 1.244-1.073 2.515-1.564 3.79-.292.758-.765 1.28-1.556 1.49-.853.226-1.708.448-2.561.672l-5.288 1.382v5.19l.325.09c2.453.65 4.903 1.312 7.36 1.947.92.238 1.462.784 1.778 1.685.415 1.184.883 2.358 1.437 3.484.469.95.453 1.78-.094 2.685-1.334 2.212-2.622 4.452-3.888 6.61l3.722 3.714c2.198-1.284 4.457-2.586 6.697-3.92.885-.526 1.722-.531 2.63-.055.779.409 1.573.887 2.417 1.059 1.936.393 2.755 1.575 3.113 3.43.415 2.156 1.073 4.266 1.625 6.389h5.206c.685-2.577 1.375-5.11 2.027-7.654.236-.924.77-1.469 1.665-1.793 1.243-.45 2.463-.97 3.663-1.524.84-.387 1.616-.377 2.398.085 1.066.63 2.126 1.268 3.192 1.897 1.211.714 2.427 1.422 3.586 2.1l1.857-1.857 1.84-1.841c-1.289-2.213-2.584-4.474-3.92-6.711-.527-.884-.548-1.699-.084-2.626.522-1.042 1.002-2.123 1.345-3.234.353-1.14 1.008-1.77 2.169-2.048 2.463-.59 4.907-1.263 7.38-1.909v-5.204c-2.604-.688-5.183-1.371-7.763-2.049-.837-.22-1.353-.735-1.66-1.553-.472-1.258-.99-2.5-1.546-3.725-.377-.833-.415-1.608.076-2.394.222-.356.43-.721.642-1.083l3.323-5.667-3.734-3.712c-2.206 1.283-4.486 2.594-6.748 3.933-.799.473-1.552.477-2.39.094-1.223-.559-2.468-1.074-3.729-1.54-.819-.302-1.35-.802-1.566-1.644-.253-.983-.51-1.964-.768-2.946l-1.265-4.83zm-.985 17.502c6.839.114 13.068 6.432 13.057 13.46-.01 7.062-6.304 13.305-13.407 13.299-6.963-.006-13.253-6.268-13.357-13.09-.112-7.242 6.403-13.79 13.707-13.669zm-.335 4.479c-5.186.01-8.904 3.745-8.894 8.934.01 5.159 3.726 8.885 8.866 8.894 5.232.008 8.958-3.706 8.967-8.938.008-5.164-3.75-8.9-8.94-8.89z" transform="translate(1 1)"/>
    </g>
</svg>
