<svg xmlns="http://www.w3.org/2000/svg" width="70" height="70" viewBox="0 0 70 70">
    <g fill="none" fill-rule="evenodd">
        <path fill="#BCE604" d="M32.28 2.618c22.239 14.198 5.756 21.547 8.12 39.98 1.621 12.647 2.113-5.736 7.63 10.317 4.385 12.763-7.451 14.632 10.732 12.668 15.676-1.693 2.622-13.336 1.812-17.316-.708-3.48 1.038-7.052 1.015-10.602-.072-10.94.831-22.066-1.3-32.797-.402-2.017-3.643-2.203-5.691-2.386-6.823-.608-13.7.03-20.55.044l-1.768.092z" opacity=".605" transform="translate(1 1)"/>
        <path fill="#0631A0" stroke="#0631A0" stroke-width=".5" d="M55.922 0c3.566-.017 6.035 2.653 6.755 5.506.214.848.331 1.761.333 2.645.02 12.9.017 25.8.003 38.7 0 .593.132.928.584 1.251 3.253 2.325 4.99 6.93 4.223 11.075-.87 4.705-3.925 8.12-7.834 8.73-.51.08-1.033.073-1.55.073-12.404.001-24.807-.051-37.21.02-5.003.029-8.753-3.622-9.975-8.018-.323-1.164-.554-2.421-.566-3.639-.059-5.736-.027-11.472-.025-17.209 0-.155.024-.31.045-.558 1.026.292 2.03.549 3.012.892.135.047.23.519.23.795.014 5.155.1 10.312-.014 15.464-.108 4.837 3.255 8.614 7.17 8.434 1.1-.05 2.215-.12 3.306.018 1.712.216 2.828-.819 3.753-2.252 2.562-3.966 1.474-9.356-2.29-11.668-.432-.264-.89-.7-1.095-1.193-.515-1.234.288-2.523 1.492-2.527l32.482-.092h1.012v-.948c0-12.345 0-24.69-.003-37.036 0-2.981-1.395-4.61-3.917-4.61l-41.06.001h0-.81v19.663c-1.088-.317-2.081-.582-3.057-.919-.133-.046-.247-.449-.25-.688-.02-1.85-.011-3.7-.011-5.674h0-.737c-2.702 0-5.403.002-8.104-.001-1.088-.002-1.791-.707-1.798-1.953-.012-2.404-.059-4.817.096-7.21C.352 3.39 3.216.152 6.355.08c4.838-.108 9.678-.055 14.518-.057C32.556.018 44.239.057 55.922 0zm2.848 50.318c-9.112-.019-18.224-.008-27.335-.006-.163 0-.325.042-.514.068 2.558 4.606 2.536 9.146-.034 13.772h.662c9.112 0 18.224.004 27.335-.01.487 0 .989-.095 1.46-.247 2.902-.94 4.71-4.188 4.305-7.685-.386-3.319-2.91-5.886-5.88-5.892zM3.93 22c.12.034.407.096.683.196 8.338 3.043 16.677 6.083 25.006 9.155.49.18.987.535 1.344.96 1.47 1.754 2.89 3.563 4.325 5.355 1.242 1.553.821 3.101-.97 3.587-2.08.564-4.155 1.154-6.243 1.673-.46.114-1 .099-1.447-.062-8.41-3.043-16.81-6.116-25.211-9.186-1.274-.465-1.664-1.323-1.27-2.786.657-2.442 1.319-4.883 1.985-7.322.283-1.036.84-1.563 1.798-1.57zm6.47 6.26l-1.12 4.28c.11.083.145.122.186.137 5.869 2.145 11.738 4.288 17.608 6.429.148.054.316.143.454.108 1.2-.311 2.394-.647 3.727-1.012-.8-1.003-1.478-1.904-2.209-2.742-.287-.329-.668-.614-1.052-.756-3.935-1.463-7.88-2.891-11.82-4.33L10.4 28.26zm-5.556-2.018L3.675 30.56l2.46.904 1.134-4.344-2.425-.877zM47.25 22c.576-.003.785.176.747.864-.048.838-.017 1.682-.008 2.524.004.376-.06.614-.456.612-4.473-.021-8.946-.029-13.42-.042-.02 0-.039-.024-.112-.07h0v-3.834c.255-.016.46-.04.666-.04 4.194-.001 8.389.012 12.583-.014zM31 22v4h-4v-4h4zm16-8v4H34v-4h13zm-16 0v4h-4v-4h4zM10.62 3.854c-1.288 0-2.52-.014-3.753.003-1.68.024-3.245 1.382-3.459 3.33-.186 1.7-.039 3.452-.039 5.195h7.251z" transform="translate(1 1)"/>
    </g>
</svg>
