<svg xmlns="http://www.w3.org/2000/svg" width="70" height="70" viewBox="0 0 70 70">
    <g fill="none" fill-rule="evenodd" transform="translate(1 1)">
        <circle cx="34" cy="34" r="30" fill="#FCB40E" opacity=".383"/>
        <path fill="#0631A0" stroke="#0631A0" stroke-width=".4" d="M49.87 56.622c-.047 3.736 2.941 6.777 6.723 6.841 3.645.062 6.765-2.99 6.838-6.691.072-3.696-2.93-6.812-6.622-6.875-3.866-.067-6.89 2.864-6.939 6.725m-38.506-6.724c-3.817.012-6.828 3.008-6.83 6.796 0 3.73 3.131 6.808 6.887 6.769 3.672-.039 6.681-3.09 6.67-6.763-.012-3.806-2.986-6.814-6.727-6.802M56.668 18.1c3.67.013 6.72-2.995 6.762-6.67.043-3.754-3.035-6.893-6.762-6.893-3.786 0-6.782 3.01-6.795 6.83-.014 3.744 2.99 6.72 6.795 6.733m-38.58-6.75c-.012-3.815-3.035-6.84-6.809-6.812-3.697.026-6.735 3.078-6.744 6.774-.009 3.779 3.02 6.785 6.837 6.785 3.72 0 6.728-3.021 6.716-6.747m15.916 15.87c-3.869.02-6.81 3.025-6.8 6.953.007 3.667 3.116 6.622 6.95 6.606 3.585-.014 6.624-3.125 6.603-6.758-.022-3.794-3.027-6.82-6.753-6.802M9.955 0h2.788c1.027.306 2.095.519 3.076.936 4.606 1.957 7.334 6.72 6.769 11.643-.195 1.698-.777 3.248-1.65 4.739 2.286 2.282 4.549 4.551 6.836 6.796.117.115.49.102.665.006 1.393-.764 2.866-1.257 4.448-1.408 2.357-.226 4.56.268 6.635 1.402.176.097.547.114.664 0 2.287-2.245 4.549-4.514 6.827-6.789l-.266-.492c-1.163-2.159-1.655-4.434-1.365-6.897.545-4.64 4.134-8.663 8.696-9.661.382-.084.76-.183 1.14-.275h2.787c.36.087.72.182 1.082.26 5.585 1.206 9.494 6.61 8.842 12.229-.683 5.882-5.603 10.291-11.397 10.2-2.098-.032-4.042-.631-5.843-1.724-.153.14-.286.254-.409.378-2.08 2.08-4.152 4.17-6.25 6.234-.349.344-.362.58-.134 1.006 1.814 3.383 1.908 6.83.28 10.31-.521 1.116-.54 1.113.33 1.986 2.041 2.053 4.087 4.103 6.12 6.143 6.13-3.581 12.448-1.02 15.342 3.186 3.085 4.484 2.552 10.612-1.314 14.48-3.867 3.868-9.99 4.4-14.472 1.314-4.203-2.894-6.766-9.22-3.18-15.352-2.259-2.253-4.523-4.522-6.811-6.766-.118-.116-.489-.107-.665-.012-3.698 1.978-7.388 1.984-11.073-.015-.326-.177-.524-.18-.793.103-.76.802-1.557 1.571-2.339 2.353l-4.33 4.33c.007.084.002.11.011.127.091.177.184.352.277.528 1.274 2.385 1.693 4.895 1.167 7.567-.975 4.96-5.328 8.854-10.228 9.117-5.439.29-10.14-2.883-11.695-7.908-.207-.67-.35-1.359-.523-2.039v-2.789c.136-.55.26-1.105.41-1.652 1.452-5.293 6.712-8.842 12.099-8.208 1.719.202 3.29.783 4.805 1.658 2.279-2.285 4.547-4.55 6.79-6.839.114-.115.094-.485-.001-.664-.744-1.4-1.257-2.864-1.403-4.451-.218-2.384.27-4.608 1.439-6.695.086-.155.076-.496-.034-.609-2.243-2.288-4.507-4.556-6.775-6.835-.238.126-.434.224-.624.331-1.55.873-3.225 1.336-4.99 1.4-5.263.194-9.959-3.308-11.333-8.41-.136-.506-.256-1.015-.383-1.523V9.96c.04-.1.1-.195.12-.3C.998 4.835 3.814 1.753 8.494.352 8.974.208 9.468.116 9.955 0"/>
    </g>
</svg>
