<svg xmlns="http://www.w3.org/2000/svg" width="68" height="68" viewBox="0 0 68 68">
    <g fill="none" fill-rule="evenodd">
        <path fill="#0091FF" d="M7.553 49.814C35.2 39.903 24.86 27.786 43.71 14.252c4.299-3.086 10.135-11.349 13.914-7.645l3.916-.382c5.372 5.265 3.32 25.223 3.283 27.074-.606 30.05-25.875 17.454-53.969 16.902l-3.302-.387z" opacity=".342"/>
        <path fill="#0631A0" d="M56.142 41.457c5.559-.658 10.39 2.596 11.623 7.822 1.055 4.466-1.526 9.264-6.047 11.185-.46.196-.627.41-.62.9.029 2.17.012 4.341.012 6.613l-3.369-3.302L54.396 68l-.221-.11v-.678c0-1.954-.012-3.909.008-5.863.005-.442-.117-.667-.566-.873-3.791-1.737-6.076-4.608-6.297-8.692-.303-5.593 3.81-9.733 8.822-10.327zM65.212 0c.694.474 1.508.848 2.045 1.455.424.477.708 1.24.71 1.878.042 10.888.03 21.776.03 32.665 0 .125-.011.25-.02.44-.176-.084-.311-.136-.433-.21-1.813-1.097-3.746-1.937-5.79-2.523-.449-.128-.564-.322-.563-.761.013-8.533.009-17.066.007-25.6 0-.21-.018-.421-.029-.67H6.853V46.42h34.101l-.222 6.677c-.21.01-.425.028-.64.028-12.084.003-24.168-.003-36.252.013-1.922.002-3.16-.869-3.84-2.58V2.722C.482 1.378 1.415.473 2.79 0zM28.074 35.455l10.174.002c1.902 0 3.804-.001 5.705.002 2.041.002 3.341 1.145 3.35 2.94.01 1.785-1.284 2.96-3.326 2.968-3.803.013-7.606 0-11.41 0h-1.52c-4.058.004-8.114.007-12.171 0-.568-.001-1.153.018-1.701-.093-1.594-.321-2.555-1.644-2.37-3.17.19-1.589 1.41-2.645 3.095-2.646 6.783-.005 13.566-.002 20.348-.001zM19.23 11.787c4.075 0 7.379 3.311 7.379 7.396s-3.304 7.397-7.38 7.397h-.024c-4.075 0-7.379-3.312-7.379-7.397 0-4.085 3.304-7.396 7.379-7.396zm26.059 5.919l4.83.018c1.781.01 3.092 1.298 3.098 2.911.006 1.641-1.24 2.913-3.036 2.95-2.436.053-4.875.014-7.313.014v.022h-6.71c-2.634 0-4.16-1.716-3.471-3.9.364-1.157 1.523-1.994 2.939-2 4.831-.02 9.663-.026 14.494.003z"/>
    </g>
</svg>
