<svg xmlns="http://www.w3.org/2000/svg" width="68" height="68" viewBox="0 0 68 68">
    <g fill="none" fill-rule="evenodd">
        <path fill="red" d="M14.264 46c-1.058-8.333 1.884-13 8.825-14 6.94-1 12.291-5.667 16.052-14V3.685L50 10.969l5.586 13.873L50 40.004 43.5 47 29 52.014 14.264 46z" opacity=".387"/>
        <path fill="#0631A0" fill-rule="nonzero" d="M66.13 66.13c-2.495 2.494-6.539 2.494-9.033 0l-11.27-11.272c-4.635 2.973-10.112 4.744-16.026 4.744C13.344 59.602 0 46.26 0 29.8 0 13.34 13.344 0 29.801 0c16.46 0 29.801 13.341 29.801 29.8 0 5.913-1.773 11.392-4.744 16.028L66.13 57.1c2.495 2.495 2.495 6.536 0 9.03zM29.432 8.12c-11.77 0-21.314 9.54-21.314 21.313 0 11.772 9.544 21.313 21.314 21.313 11.772 0 21.313-9.54 21.313-21.313S41.206 8.119 29.433 8.119z"/>
    </g>
</svg>
