<svg xmlns="http://www.w3.org/2000/svg" width="68" height="79" viewBox="0 0 68 79">
    <g fill="none" fill-rule="evenodd">
        <circle cx="27.5" cy="27.5" r="27.5" fill="#FFCA00" opacity=".512"/>
        <path fill="#0631A0" d="M41.252 57.968l-4.127 4.075 7.404 7.397-3.277-11.472zM30.82 62.051l-4.102-4.108L23.44 69.43l7.38-7.38zm8.428-10.627c-.212-.011-.397-.03-.582-.03-3.148-.001-6.296-.008-9.444.013-.276.002-.762.156-.788.302-.098.564-.687 1.126-.054 1.738 1.148 1.11 2.271 2.246 3.396 3.38.722.73 1.428 1.475 2.173 2.246 1.565-1.565 2.983-3.105 4.537-4.494.972-.869 1.41-1.73.85-2.961l-.088-.194zm-1.25-4.31L34.063 33.46l-.17.015-3.925 13.639h8.03zM34.106 65.29l-7.301 7.297h14.573l-7.272-7.297zm25.379 7.354v-.847c0-11.572.002-23.144.004-34.716 0-4.28.006-8.562-.015-12.842-.001-.276-.14-.637-.342-.813-.757-.66-1.557-1.27-2.362-1.87-.178-.134-.469-.26-.66-.21-5.108 1.33-10.21 2.677-15.307 4.048-.185.05-.385.348-.429.561-.15.732-.15 1.502-.368 2.208-.17.547-.19 1.01-.03 1.552 2.742 9.362 5.467 18.728 8.197 28.094 1.384 4.75 2.763 9.502 4.167 14.246.067.229.345.56.53.563 2.163.04 4.326.026 6.615.026zm4.28.008h4.205V79H.005v-6.355h2.02c4.258.002 8.517-.002 12.776.015.454.002.702-.077.849-.577 4.172-14.222 8.364-28.438 12.55-42.656.058-.194.099-.394.184-.739l-14.348 3.794c.302 1.171.824 2.188 1.538 3.082.629.787 1.342 1.51 2.06 2.218.903.89 1.043 1.758.375 2.84-1.419 2.3-2.837 4.6-4.261 6.897-.957 1.543-2.229 1.795-3.66.692-5.116-3.94-8.227-9.146-9.544-15.42-1.16-5.523-.467-10.838 2.09-15.89.666-1.315 1.906-1.699 3.18-.944 2.426 1.437 4.84 2.894 7.256 4.348 1.106.665 1.39 1.56.857 2.764-.716 1.619-.988 3.314-.977 5.135l6.43-1.741c2.536-.686 5.07-1.38 7.61-2.05.533-.14.858-.38 1.106-.918 1.689-3.667 6.284-5.058 9.426-2.805.763.546 1.358.623 2.222.385 4.953-1.362 9.922-2.666 14.892-3.967.432-.114.612-.284.674-.734.464-3.323 3.398-5.585 6.914-5.358 3.2.206 5.752 2.919 5.776 6.193.02 2.761-1.225 4.768-3.747 5.928-.39.179-.496.381-.495.783.01 9.573.01 19.147.01 28.721l-.002 19.126v.885z"/>
    </g>
</svg>
