<svg xmlns="http://www.w3.org/2000/svg" width="70" height="70" viewBox="0 0 70 70">
    <g fill="none" fill-rule="evenodd">
        <path fill="#FF005D" d="M46.578 9.375c-23.31 8.469-5.47 23.954-16.206 33.373-16.769 14.711-46.056 23.29-5.538 23.734 12.974.143 25.965.2 38.922-.49 2.744-.146 2.821-4.461 2.818-5.836-.034-15.923.261-31.872-.762-47.762-.08-1.23-1.287-2.468-2.49-2.73-4.39-.96-8.97-.505-13.456-.758l-3.288.469z" opacity=".235" transform="translate(1 1)"/>
        <path fill="#0631A0" stroke="#0631A0" stroke-width=".5" d="M16.79 0l2.64.001c2.46 0 4.92.001 7.378-.001h0c.698 0 1.275.29 1.767.889.71.864 1.441 1.737 2.148 2.58.78.931 1.585 1.894 2.37 2.852.21.258.389.345.703.345h0c9.974-.015 19.71-.012 27.92-.007 3.171.002 5.607 2.394 6.206 6.095.077.474.076.942.075 1.396h0v.123C68 29.647 68 45.02 68 60.395c0 4.474-2.61 7.6-6.346 7.602-4.45.003-8.898.003-13.347.003H17.97h0l-11.297-.003c-3.5-.002-5.52-1.773-6.535-5.738 0-.002-.002-.003-.003-.004h0L0 62.075V6.042l.041-.117c.085-.24.162-.486.243-.746.183-.587.373-1.193.664-1.75C2.114 1.203 3.89.023 6.083.015 10.533-.001 15.056 0 19.431 0zm-4.313 4.602H6.621c-1.944 0-2.773.983-2.773 3.286V60.19c0 2.189.86 3.209 2.706 3.209h54.922c1.8-.001 2.676-1.036 2.677-3.164 0-4.419 0-8.838-.002-13.257-.002-10.646-.005-21.654.02-32.481.003-.978-.246-1.793-.718-2.357-.48-.571-1.164-.87-1.988-.865-6.246.045-12.596.042-18.738.04-3.235-.002-6.47-.003-9.706.002-.828.001-1.486-.323-2.057-1.021-1.644-2.013-3.11-3.76-4.48-5.342-.156-.181-.444-.329-.642-.33-5.333-.025-10.756-.023-16-.023zm17.13 14.423c3.47-.201 6.908.837 9.678 2.925 2.973 2.24 5.043 5.891 5.537 9.768.338 2.65.098 6.601-2.872 10.577.205.174.414.354.614.553 2.665 2.66 5.051 5.05 7.295 7.308.699.705.852 1.533.43 2.334-.341.65-.978 1.033-1.65 1.033-.164 0-.33-.023-.494-.07-.51-.147-.93-.509-1.133-.712-2.651-2.63-5.318-5.309-7.577-7.582-.07-.07-.131-.146-.185-.222-3.688 2.701-7.532 3.59-11.735 2.719-3.564-.74-6.484-2.619-8.679-5.585-2.083-2.816-3.073-6.283-2.788-9.764.286-3.477 1.827-6.752 4.34-9.222 2.458-2.416 5.732-3.858 9.218-4.06zm.875 4.304h-.056c-5.67.03-10.26 4.685-10.235 10.378.013 2.793 1.103 5.4 3.07 7.343 1.967 1.942 4.594 3.006 7.402 2.993 2.729-.012 5.298-1.099 7.235-3.06 1.956-1.98 3.023-4.603 3.007-7.382-.017-2.768-1.113-5.357-3.085-7.292-1.961-1.923-4.565-2.98-7.338-2.98h0z" transform="translate(1 1)"/>
    </g>
</svg>
