<svg xmlns="http://www.w3.org/2000/svg" width="68" height="68" viewBox="0 0 68 68">
    <g fill="none" fill-rule="evenodd">
        <path fill="#1800FF" d="M37.154 13.899c-12.321 8.434-2.743 11.371-5.119 27.297-.847 5.681-9.184 13.903-7.2 21.475 2.579 9.842 42.322 1.956 25.914-15.94-3.382-3.689-7.758-6.361-11.216-9.978-1.081-1.13 7.056-7.15 6.634-11.589-.167-1.75-.668-3.558-1.676-4.998-1.55-2.216-3.863-3.786-5.795-5.68l-1.542-.587z" opacity=".21"/>
        <path fill="#0631A0" d="M31.49.005c1.338-.087 2.474.965 2.474 2.307 0 1.162-.861 2.151-2.013 2.292C18.623 6.234 9.396 13.24 5.67 26.714c-2.882 10.421.064 19.726 7.422 27.895.697-8.587 4.823-14.648 12.375-18.467-4.083-3.527-5.943-7.961-5.054-13.35.57-3.45 2.31-6.303 5.084-8.45 5.706-4.415 13.655-3.763 18.517 1.349 4.827 5.076 5.693 14.532-1.462 20.462 7.495 3.78 11.64 9.837 12.34 18.431 6.815-7.438 9.686-15.97 7.928-25.761-1.632-9.09-6.611-15.83-14.379-20.432-1.024-.607-1.416-1.898-.903-2.974l.02-.041c.569-1.196 2.026-1.667 3.185-1.028 11.87 6.551 20.348 21.477 16.182 38.008-4.329 17.171-20.886 27.86-38.077 25.254C11.16 64.928-1.827 48.721.21 30.218 2.13 12.788 16.37.983 31.49.005zm18.428 52.441c-1.595-8.482-8.986-14.158-17.54-13.264-6.672.697-11.16 4.45-13.624 10.659-.888 2.24-.94 4.586-.935 6.94l.004.942c.002.522.154.826.6 1.104 4.491 2.798 9.38 4.304 14.657 4.468 5.747.178 11.087-1.264 16.05-4.18.793-.465 1.17-.973 1.034-1.888-.063-.427-.01-.87-.01-1.307l.071-.006c-.097-1.157-.093-2.333-.307-3.468zm-15.93-36.391c-5 .007-9.16 4.188-9.139 9.186.022 5.013 4.216 9.183 9.189 9.138 5.018-.046 9.155-4.238 9.103-9.224-.052-4.995-4.187-9.107-9.153-9.1zM39.27 2.184C39.503.7 40.945-.273 42.406.068l.061.015c1.461.34 2.324 1.854 1.876 3.288l-.016.05c-.405 1.291-1.737 2.05-3.053 1.74l-.054-.012c-1.313-.31-2.167-1.58-1.958-2.914l.008-.051z"/>
    </g>
</svg>
