<svg xmlns="http://www.w3.org/2000/svg" width="73" height="68" viewBox="0 0 73 68">
    <g fill="none" fill-rule="evenodd">
        <path fill="#F68D1E" d="M41.157 4.937c-5.791 3.45-8.93 11.89-9.417 25.323-.487 13.432-8.7 23.328-24.64 29.687l1.513 4.428 56.925-1.541 1.816-2.887V8.54L63.9 4.937 57 3.685 41.157 4.937z" opacity=".305"/>
        <path fill="#0631A0" fill-rule="nonzero" d="M61.25 0c5.97 0 10.81 4.807 10.81 10.737v46.526C72.06 63.193 67.22 68 61.25 68H10.81C4.839 68 0 63.193 0 57.263V10.737C0 4.807 4.84 0 10.809 0h50.442zm0 7.158H10.81c-1.848 0-3.37 1.382-3.579 3.161l-.024.418v46.526c0 1.836 1.39 3.348 3.183 3.555l.42.024h50.442c1.847 0 3.37-1.382 3.578-3.161l.025-.418V10.737c0-1.836-1.391-3.348-3.183-3.555l-.42-.024zM52.208 19.18c1.306-1.23 3.407-1.213 4.691.038l.138.142c1.144 1.256 1.081 3.166-.177 4.35L33.087 46.097c-.843.795-2.2.784-3.029-.023l-.842-.82-.002.002-9.974-9.55c-1.295-1.242-1.295-3.252 0-4.493 1.296-1.24 3.397-1.24 4.693 0l6.197 5.934c.823.788 2.156.794 2.985.013z"/>
    </g>
</svg>
